/* XPM */
static char * bottom_right_xpm[] = {
"5 5 5 1",
" 	c None",
".	c #182018",
"+	c #000400",
"@	c #101810",
"#	c #000000",
"    .",
"    +",
"   @#",
"  @##",
".+###"};
