/* XPM */
static char * top_left_xpm[] = {
"5 5 5 1",
" 	c None",
".	c #000000",
"+	c #000400",
"@	c #182018",
"#	c #101810",
"...+@",
"..#  ",
".#   ",
"+    ",
"@    "};
