<?xml version="1.0" encoding="UTF-8" standalone="no"?>
<!-- Creator: CorelDRAW -->
<svg xmlns:dc="http://purl.org/dc/elements/1.1/" xmlns:cc="http://creativecommons.org/ns#" xmlns:rdf="http://www.w3.org/1999/02/22-rdf-syntax-ns#" xmlns:svg="http://www.w3.org/2000/svg" xmlns="http://www.w3.org/2000/svg" xmlns:sodipodi="http://sodipodi.sourceforge.net/DTD/sodipodi-0.dtd" xmlns:inkscape="http://www.inkscape.org/namespaces/inkscape" xml:space="preserve" width="900" height="600" viewBox="-2002 0 4004 2004" id="svg1707" sodipodi:version="0.32" inkscape:version="0.47 r22583" sodipodi:docname="Z2Z.svg" version="1.0" inkscape:output_extension="org.inkscape.output.svg.inkscape"><metadata id="metadata1863"><rdf:RDF><cc:Work rdf:about=""><dc:format>image/svg+xml</dc:format><dc:type rdf:resource="http://purl.org/dc/dcmitype/StillImage"/></cc:Work></rdf:RDF></metadata><sodipodi:namedview inkscape:window-height="846" inkscape:window-width="1280" inkscape:pageshadow="2" inkscape:pageopacity="0.0" borderopacity="1.0" bordercolor="#666666" pagecolor="#ffffff" id="base" inkscape:zoom="1" inkscape:cx="327.70135" inkscape:cy="296.88971" inkscape:window-x="-4" inkscape:window-y="-4" inkscape:current-layer="g13004" showborder="false" showguides="true" inkscape:guide-bbox="false" inkscape:grid-points="false" inkscape:object-nodes="false" inkscape:guide-points="false" gridtolerance="7.5" objecttolerance="5.9" guidetolerance="8" inkscape:grid-bbox="false" inkscape:object-paths="false" showgrid="false" inkscape:window-maximized="0"/><defs id="defs1709"><inkscape:perspective sodipodi:type="inkscape:persp3d" inkscape:vp_x="0 : 300 : 1" inkscape:vp_y="0 : 1000 : 0" inkscape:vp_z="900 : 300 : 1" inkscape:persp3d-origin="450 : 200 : 1" id="perspective197"/></defs><g id="g13237" transform="translate(-2.7256888,-5.6087184)"><path id="21399192" class="fil0 str0" d="M 2004.7257,2342.2754 L 2004.7257,-327.05794 L -1999.2743,-327.05794 L -1999.2743,2342.2754 L 2004.7257,2342.2754 z" style="fill:#006233;fill-opacity:1;stroke:none;stroke-width:3.0019908;stroke-miterlimit:4;stroke-dasharray:none;stroke-opacity:1"/><g id="g13004" transform="matrix(1.1437136,0,0,1.1445722,-0.3916719,-145.67302)"><g id="g9244" transform="matrix(1.7598415,0,0,1.6000391,-2175.2444,-3398.092)" style="fill:#ffffff;stroke:#ffffff"><path sodipodi:nodetypes="csccsc" id="path3159" d="M 1071.9432,2779.7209 C 1045.9991,2818.5805 1064.6936,2843.8744 1091.3762,2845.729 C 1109.0011,2846.9541 1145.6048,2820.84 1145.5436,2789.9972 L 1135.5451,2784.4425 C 1141.085,2800.165 1135.2682,2805.2179 1123.4476,2815.9593 C 1099.9407,2837.3203 1051.9394,2838.8462 1071.9432,2779.7209 z" style="fill:#ffffff;fill-rule:evenodd;stroke:#ffffff;stroke-width:0.40079999;stroke-linecap:butt;stroke-linejoin:miter;stroke-opacity:1"/><path sodipodi:nodetypes="ccccccccccccsc" id="path3115" d="M 1277.1912,2881.6506 C 1422.9866,2885.7966 1469.449,2744.7275 1379.3986,2623.9102 L 1370.511,2637.2416 C 1376.3378,2693.5494 1384.6711,2749.0226 1385.5088,2806.6615 C 1367.8728,2827.3521 1342.2648,2819.7437 1337.1825,2796.6629 C 1337.5371,2765.5427 1327.2676,2739.1443 1314.408,2713.8971 L 1307.1868,2727.2286 C 1315.6024,2747.9186 1324.6929,2771.1591 1326.6285,2796.6629 C 1285.0048,2846.6494 1239.0138,2856.7012 1256.0831,2791.1081 C 1223.1615,2848.5686 1273.0232,2889.1006 1329.4058,2800.5512 C 1341.4922,2861.0306 1388.3268,2823.4683 1391.0636,2810.5498 C 1396.1854,2770.8712 1393.6355,2707.1103 1383.2869,2656.6832 C 1423.8783,2727.0222 1425.3212,2777.6781 1403.6997,2811.572 C 1379.6513,2849.2701 1327.4654,2866.8907 1277.1912,2881.6506 z" style="fill:#ffffff;fill-rule:evenodd;stroke:#ffffff;stroke-width:1px;stroke-linecap:butt;stroke-linejoin:miter;stroke-opacity:1"/><path sodipodi:nodetypes="cssscccssc" d="M 1359.8617,2722.2293 C 1328.6818,2724.5293 1312.6652,2718.0687 1329.636,2695.0307 C 1346.3381,2672.3576 1361.9083,2690.414 1366.0672,2720.5628 C 1369.9749,2748.8907 1311.3475,2785.0239 1291.0354,2785.0271 C 1260.3308,2785.0319 1246.107,2745.5307 1274.4138,2710.0088 C 1237.9829,2813.6264 1352.9708,2753.5173 1359.8617,2722.2293 z M 1338.2736,2698.1644 C 1334.535,2698.0035 1331.7496,2704.7004 1333.6434,2706.0165 C 1339.0576,2709.7789 1347.8423,2707.4958 1348.6791,2705.6379 C 1350.5877,2701.4003 1343.62,2698.3945 1338.2736,2698.1644 z" style="fill:#ffffff;fill-rule:evenodd;stroke:#ffffff;stroke-width:1px;stroke-linecap:butt;stroke-linejoin:miter;stroke-opacity:1" id="path3117"/><path sodipodi:nodetypes="cscccccsc" id="path3140" d="M 1190.5371,2771.1111 C 1160.5115,2830.0608 1190.4232,2854.5468 1228.899,2847.6596 C 1251.3389,2843.6429 1279.7245,2827.6749 1296.0773,2806.0107 C 1296.363,2758.2275 1295.664,2710.7725 1291.5382,2664.4598 C 1306.536,2646.6443 1290.1874,2646.7208 1284.4995,2627.5208 C 1281.8618,2638.6566 1275.6063,2650.7603 1281.6957,2659.5394 C 1286.0018,2706.2122 1288.4359,2753.509 1288.3007,2801.6622 C 1258.1128,2826.013 1235.4291,2835.0156 1219.1536,2834.8468 C 1185.6569,2834.4995 1178.5179,2806.3024 1190.5371,2771.1111 z" style="fill:#ffffff;fill-rule:evenodd;stroke:#ffffff;stroke-width:1px;stroke-linecap:butt;stroke-linejoin:miter;stroke-opacity:1"/><path style="opacity:1;fill:#ffffff;fill-rule:evenodd;stroke:#ffffff;stroke-width:1px;stroke-linecap:butt;stroke-linejoin:miter;stroke-opacity:1" d="M 1251.8425,2786.7014 C 1251.303,2742.1775 1250.5942,2691.7439 1246.6312,2660.6312 C 1262.1663,2643.2823 1245.823,2642.8592 1240.7244,2623.4944 C 1237.7477,2634.5444 1231.1253,2646.4513 1236.9436,2655.4124 C 1239.5368,2703.017 1241.9994,2750.6215 1242.536,2798.2261 C 1246.1375,2795.8824 1250.2272,2795.0036 1251.8425,2786.7014 z" id="path3150" sodipodi:nodetypes="cccccc"/><path sodipodi:nodetypes="cccscsssccccccccccssscscccc" d="M 1135.3932,2784.6485 C 1131.6446,2779.7964 1128.8788,2774.4307 1125.7712,2769.698 C 1125.3048,2763.0218 1129.8101,2756.753 1130.3859,2753.4246 C 1135.4686,2761.3038 1138.5068,2767.3014 1142.6065,2771.2052 M 1147.9512,2774.3219 C 1155.5139,2777.3109 1164.6519,2777.3001 1173.2393,2777.4752 C 1205.9694,2778.1427 1240.4843,2772.7084 1236.8293,2817.055 C 1233.5805,2856.4731 1200.8942,2879.3088 1171.6277,2879.0004 C 1129.8676,2878.5605 1094.28,2832.5938 1158.5925,2747.9488 C 1164.8386,2746.8869 1172.8874,2748.6389 1179.6317,2749.2372 C 1191.113,2750.0599 1202.8606,2748.9533 1216.4286,2738.2348 C 1214.7811,2710.3496 1214.8181,2683.8532 1211.3917,2658.7453 C 1205.5734,2649.7842 1212.1958,2637.8773 1215.1725,2626.8273 C 1220.2711,2646.1921 1236.6144,2646.6152 1221.0793,2663.9641 C 1224.7646,2692.0217 1225.1956,2720.514 1225.1796,2737.5419 C 1217.4386,2749.4209 1211.2701,2762.0486 1188.5173,2766.7791 C 1165.1958,2763.3873 1154.7159,2730.8066 1130.3859,2741.6412 C 1137.1053,2712.231 1198.757,2705.5079 1205.0141,2728.6794 C 1200.9152,2752.9439 1143.2731,2743.1589 1128.0292,2821.3756 C 1123.3226,2845.5251 1148.7018,2867.6997 1174.781,2865.9404 C 1200.3353,2864.2165 1227.5236,2846.4934 1230.152,2816.6622 C 1232.3414,2791.8136 1197.1631,2794.6772 1182.4631,2794.9968 C 1161.0879,2795.4654 1147.5606,2792.2014 1139.5114,2787.5495 M 1161.3746,2733.6165 C 1165.201,2730.0343 1178.5179,2727.4829 1183.3159,2733.3388 C 1179.6938,2735.7343 1176.2059,2738.264 1173.3174,2741.3931 C 1168.2609,2738.8009 1165.0415,2736.2087 1161.3746,2733.6165 z" style="fill:#ffffff;fill-rule:evenodd;stroke:#ffffff;stroke-width:0.40079999;stroke-linecap:butt;stroke-linejoin:miter;stroke-opacity:1" id="path3152"/><path sodipodi:nodetypes="ccsscscccsccscsccc" id="path3161" d="M 1194.0163,2650.909 C 1197.5751,2658.8831 1199.095,2664.1508 1199.3135,2671.9024 C 1197.1477,2682.2517 1188.2338,2691.9772 1179.0021,2692.3146 C 1173.3395,2692.5216 1166.8629,2690.8628 1162.4449,2681.9827 C 1161.9195,2680.9266 1159.5082,2678.3391 1157.2297,2679.5343 C 1147.1017,2696.0665 1139.5652,2703.1432 1130.5432,2702.9929 C 1112.2762,2702.6746 1117.6844,2686.4999 1100.9273,2681.5458 C 1093.8742,2681.3173 1082.4459,2688.4113 1076.4669,2702.3492 C 1054.1364,2765.8372 1033.6697,2702.1252 1042.4031,2672.5119 C 1043.7263,2700.8133 1050.4681,2717.6343 1057.5119,2717.0519 C 1062.6128,2716.6301 1067.0796,2704.836 1073.5678,2692.4494 C 1078.5554,2682.9277 1090.6444,2665.7947 1103.284,2665.8346 C 1114.8688,2666.0742 1107.6414,2687.4039 1130.8216,2687.0504 C 1142.0363,2686.8793 1152.3219,2678.3471 1162.6612,2661.1212 C 1164.9753,2660.7151 1165.6412,2664.8068 1166.0507,2666.2332 C 1167.7217,2672.0539 1177.8792,2688.2682 1191.6596,2673.4881 C 1190.995,2670.257 1191.3196,2664.9648 1187.7794,2663.8904 L 1194.0163,2650.909 z" style="fill:#ffffff;fill-rule:evenodd;stroke:#ffffff;stroke-width:1px;stroke-linecap:butt;stroke-linejoin:miter;stroke-opacity:1"/><path d="M 1266.9149,2598.2889 C 1254.5878,2604.4272 1245.5753,2598.8379 1240.5298,2593.359 C 1249.3524,2591.607 1256.2602,2588.382 1258.305,2581.4163 C 1254.2774,2572.3877 1244.8137,2568.4931 1231.3645,2568.3627 C 1213.4719,2568.8579 1204.3201,2576.0741 1203.1841,2585.9949 C 1211.4911,2586.3103 1218.9866,2584.0133 1222.1992,2591.9704 C 1207.526,2599.1811 1190.2298,2601.8014 1171.3732,2601.6912 C 1140.626,2603.2882 1136.1187,2589.4392 1127.9642,2577.2069 C 1127.4044,2576.3672 1124.6704,2575.1489 1123.288,2575.3258 C 1113.8153,2575.2688 1106.8174,2608.4939 1096.1063,2608.3569 C 1085.4009,2606.9527 1087.8431,2587.0306 1084.7191,2575.5838 C 1082.0583,2593.4981 1087.9688,2660.0632 1121.1027,2587.8043 C 1122.1248,2585.4298 1123.5491,2586.0611 1124.4356,2588.082 C 1133.3122,2608.3179 1151.4418,2615.2942 1170.864,2616.3478 C 1187.2392,2617.2361 1208.0101,2610.1214 1230.2536,2597.5251 C 1236.1941,2603.9582 1240.8667,2611.3666 1253.3058,2612.8007 C 1267.8407,2613.4768 1283.2876,2602.9556 1286.795,2589.9918 C 1288.5991,2583.3238 1288.9369,2570.1196 1281.8174,2569.9001 C 1271.8739,2569.5935 1264.7227,2593.5738 1266.9962,2615.1574 C 1267.1716,2614.8714 1268.2517,2609.7652 1268.2517,2609.7652 M 1224.4567,2580.9941 C 1230.9883,2577.9804 1237.263,2576.6367 1242.3282,2583.1544 C 1238.4082,2584.5569 1236.0422,2585.4647 1233.9409,2587.2309 C 1231.0797,2585.0489 1227.2969,2583.902 1224.4567,2580.9941 z M 1272.2971,2595.949 C 1273.94,2588.7719 1274.7689,2583.116 1280.5906,2579.4131 C 1281.8435,2586.8568 1282.0493,2591.0849 1272.2971,2595.949 z" style="fill:#ffffff;fill-rule:evenodd;stroke:#ffffff;stroke-width:0.40079999;stroke-linecap:butt;stroke-linejoin:miter;stroke-opacity:1" id="path3163"/><path d="M 1311.3026,2606.8953 C 1309.4431,2600.7874 1307.5339,2595.5478 1306.8615,2588.949 C 1305.4894,2575.4843 1317.0095,2567.9438 1327.414,2568.9855 C 1338.1239,2570.0578 1345.2277,2574.0502 1355.4082,2577.5524 C 1363.4491,2580.3185 1374.2452,2582.361 1384.4557,2585.3161 C 1390.2694,2587.8746 1384.4555,2594.6665 1383.0046,2595.5743 C 1357.163,2605.7353 1338.9141,2621.7155 1322.4595,2622.4369 C 1312.7387,2622.863 1304.0041,2616.507 1296.0773,2603.3576 C 1295.6412,2577.9971 1294.6595,2548.1778 1292.189,2529.4794 C 1295.977,2525.6863 1296.8435,2522.8669 1298.577,2519.7586 C 1300.5905,2544.5005 1301.3603,2570.486 1301.9098,2596.6919 C 1304.0019,2601.1729 1306.6437,2604.981 1311.3026,2606.8953 z M 1327.8155,2608.9489 C 1313.9741,2612.8178 1315.6531,2601.1454 1314.3628,2593.9105 C 1312.8596,2585.4822 1313.9327,2576.0419 1324.6157,2578.441 C 1338.4985,2582.1024 1351.1783,2586.9668 1363.5009,2592.1883 L 1327.8155,2608.9489 z" style="fill:#ffffff;fill-rule:evenodd;stroke:#ffffff;stroke-width:0.40079999;stroke-linecap:butt;stroke-linejoin:miter;stroke-opacity:1" id="path3169"/><path sodipodi:nodetypes="cccc" id="path3173" d="M 1314.2503,2621.2657 L 1316.2133,2630.5759 L 1317.7409,2630.5759 L 1317.0961,2621.9457" style="fill:#ffffff;fill-rule:evenodd;stroke:#ffffff;stroke-width:0.40079999;stroke-linecap:butt;stroke-linejoin:miter;stroke-opacity:1"/><path id="path5196" d="M 1094.1622,2718.4798 L 1101.2445,2711.2587 L 1109.2988,2718.2021 L 1101.7999,2724.8678 L 1094.1622,2718.4798 z" style="fill:#ffffff;fill-rule:evenodd;stroke:#ffffff;stroke-width:4.0079999;stroke-linecap:round;stroke-linejoin:round;stroke-miterlimit:4;stroke-dasharray:none;stroke-opacity:1"/><path style="fill:#ffffff;fill-rule:evenodd;stroke:#ffffff;stroke-width:4.0079999;stroke-linecap:round;stroke-linejoin:round;stroke-miterlimit:4;stroke-dasharray:none;stroke-opacity:1" d="M 1112.0337,2716.1231 L 1119.116,2708.902 L 1127.1703,2715.8454 L 1119.6714,2722.5111 L 1112.0337,2716.1231 z" id="path6168"/><path id="path6170" d="M 1062.5434,2641.4949 L 1069.6257,2634.2738 L 1077.68,2641.2172 L 1070.1811,2647.8829 L 1062.5434,2641.4949 z" style="fill:#ffffff;fill-rule:evenodd;stroke:#ffffff;stroke-width:4.0079999;stroke-linecap:round;stroke-linejoin:round;stroke-miterlimit:4;stroke-dasharray:none;stroke-opacity:1"/><path style="fill:#ffffff;fill-rule:evenodd;stroke:#ffffff;stroke-width:4.0079999;stroke-linecap:round;stroke-linejoin:round;stroke-miterlimit:4;stroke-dasharray:none;stroke-opacity:1" d="M 1065.6856,2662.705 L 1072.7679,2655.4839 L 1080.8222,2662.4273 L 1073.3233,2669.093 L 1065.6856,2662.705 z" id="path6172"/><path id="path6174" d="M 1194.2286,2698.1979 L 1200.7311,2692.8896 L 1206.7394,2699.3537 L 1199.9441,2704.1658 L 1194.2286,2698.1979 z" style="fill:#ffffff;fill-rule:evenodd;stroke:#ffffff;stroke-width:4.0079999;stroke-linecap:round;stroke-linejoin:round;stroke-opacity:1"/><path style="fill:#ffffff;fill-rule:evenodd;stroke:#ffffff;stroke-width:4.0079999;stroke-linecap:round;stroke-linejoin:round;stroke-miterlimit:4;stroke-dasharray:none;stroke-opacity:1" d="M 1108.3544,2562.4993 L 1113.0008,2557.7619 L 1118.2848,2562.3172 L 1113.3651,2566.6902 L 1108.3544,2562.4993 z" id="path6176"/><path id="path6178" d="M 1120.0791,2560.9532 L 1124.7255,2556.2158 L 1130.0096,2560.771 L 1125.0899,2565.1441 L 1120.0791,2560.9532 z" style="fill:#ffffff;fill-rule:evenodd;stroke:#ffffff;stroke-width:4.0079999;stroke-linecap:round;stroke-linejoin:round;stroke-miterlimit:4;stroke-dasharray:none;stroke-opacity:1"/><path style="fill:#ffffff;fill-rule:evenodd;stroke:#ffffff;stroke-width:4.0079999;stroke-linecap:round;stroke-linejoin:round;stroke-opacity:1" d="M 1365.6638,2614.7177 L 1361.2888,2618.3988 L 1357.1313,2614.0571 L 1361.7107,2610.7109 L 1365.6638,2614.7177 z" id="path6180"/><path id="path9240" d="M 1158.7151,2747.4347 L 1158.2242,2755.2903 L 1170.8422,2756.5177 L 1180.8581,2748.9076 L 1158.7151,2747.4347 z" style="fill:#ffffff;fill-rule:evenodd;stroke:#ffffff;stroke-width:0.40079999;stroke-linecap:butt;stroke-linejoin:miter;stroke-opacity:1"/><path sodipodi:nodetypes="ccccc" id="path9242" d="M 1265.179,2599.8164 L 1268.9285,2598.9832 L 1268.5466,2609.2596 L 1266.2206,2610.1621 L 1265.179,2599.8164 z" style="fill:#ffffff;fill-rule:evenodd;stroke:#ffffff;stroke-width:1px;stroke-linecap:butt;stroke-linejoin:miter;stroke-opacity:1"/></g><path id="path2722" class="fil2" d="M 2.7256397,1425.0095 C 252.54587,1425.0095 455.8087,1240.204 455.8087,1013.0687 C 455.8087,888.14424 394.4892,776.64145 297.96773,701.27382 C 355.8806,763.21984 391.08256,844.78206 391.08256,933.57133 C 391.08256,1130.766 217.34393,1290.7932 2.7256397,1290.7932 C -211.89266,1290.7932 -385.63128,1130.766 -385.63128,933.57133 C -385.63128,844.78206 -350.42934,763.21984 -292.51646,701.27382 C -389.03792,776.64145 -450.35742,888.14424 -450.35742,1013.0687 C -450.35742,1240.204 -247.09459,1425.0095 2.7256397,1425.0095 z" style="fill:#ffffff;stroke:none;stroke-width:8.67510032999999940;stroke-linejoin:round;stroke-miterlimit:4;stroke-dasharray:none;stroke-opacity:1"/><g id="g2908" transform="matrix(1.1355465,0,0,1.0324334,2.7256397,-21.429492)" style="stroke:#000000;stroke-width:8.01200199;stroke-miterlimit:4;stroke-dasharray:none;stroke-opacity:1">
   <path style="fill:#ffffff;stroke:#000000;stroke-width:8.01200199;stroke-miterlimit:4;stroke-dasharray:none;stroke-opacity:1" d="M -54,1623 C -142,1667 -252,1655 -345,1595 C -349,1593 -351,1596 -347,1607 C -337,1636 -329,1659 -359,1702 C -372,1721 -357,1724 -335,1722 C -223,1711 -113,1686 -60,1665 L -54,1623 z" class="fil2 str2" id="path2910"/>
   <path style="fill:#ffffff;stroke:#000000;stroke-width:8.01200199;stroke-miterlimit:4;stroke-dasharray:none;stroke-opacity:1" d="M -56,1675 C -91,1689 -151,1706 -218,1718 C -245,1722 -244,1739 -196,1745 C -147,1750 -84,1715 -46,1684 L -56,1675 z" class="fil2 str2" id="path2912"/>
   <path style="fill:#ffffff;stroke:#000000;stroke-width:8.01200199;stroke-miterlimit:4;stroke-dasharray:none;stroke-opacity:1" d="M 0,1579 C 12,1579 34,1574 56,1571 C 97,1564 67,1627 0,1627 L 0,1648 C 68,1648 139,1574 124,1541 C 103,1493 45,1534 0,1534 C -45,1534 -103,1493 -124,1541 C -139,1574 -68,1648 0,1648 L 0,1627 C -67,1627 -97,1564 -56,1571 C -34,1574 -12,1579 0,1579 z" class="fil2 str2" id="path2914"/>
   <path style="fill:#ffffff;stroke:#000000;stroke-width:8.01200199;stroke-miterlimit:4;stroke-dasharray:none;stroke-opacity:1" d="M 54,1623 C 142,1667 252,1655 345,1595 C 349,1593 351,1596 347,1607 C 337,1636 329,1659 359,1702 C 372,1721 357,1724 335,1722 C 223,1711 113,1686 60,1665 L 54,1623 z" class="fil2 str2" id="path2916"/>
   <path style="fill:#ffffff;stroke:#000000;stroke-width:8.01200199;stroke-miterlimit:4;stroke-dasharray:none;stroke-opacity:1" d="M 56,1675 C 91,1689 150,1706 218,1718 C 245,1722 244,1739 196,1745 C 147,1750 84,1715 46,1684 L 56,1675 z" class="fil2 str2" id="path2918"/>
   <path style="fill:#ffffff;stroke:#000000;stroke-width:8.01200199;stroke-miterlimit:4;stroke-dasharray:none;stroke-opacity:1" d="M 3,1665 C 5,1682 8,1719 31,1703 C 62,1682 69,1666 69,1636 C 69,1617 46,1589 0,1589 C -46,1589 -69,1617 -69,1636 C -69,1666 -62,1682 -31,1703 C -8,1719 -6,1682 -3,1665 C -2,1659 3,1661 3,1665 z" class="fil2 str2" id="path2920"/>
  </g><g id="g2724" transform="matrix(1.1355465,0,0,1.0324334,2.7256397,-21.429492)" style="stroke:#000000;stroke-width:8.01200199;stroke-miterlimit:4;stroke-dasharray:none;stroke-opacity:1">
   <path style="fill:#ffffff;stroke:#000000;stroke-width:8.01200199;stroke-miterlimit:4;stroke-dasharray:none;stroke-opacity:1" d="M -29,384 C -42,310 -151,305 -168,293 C -188,280 -185,293 -178,313 C -158,365 -90,386 -59,392 C -34,396 -26,398 -29,384 z" class="fil2 str2" id="path2726"/>
   <path style="fill:#ffffff;stroke:#000000;stroke-width:8.01200199;stroke-miterlimit:4;stroke-dasharray:none;stroke-opacity:1" d="M 4,386 C 15,310 -93,274 -106,257 C -121,239 -123,250 -116,271 C -103,316 -56,369 -28,383 C -5,395 2,400 4,386 z" class="fil2 str2" id="path2728"/>
   <path style="fill:#ffffff;stroke:#000000;stroke-width:8.01200199;stroke-miterlimit:4;stroke-dasharray:none;stroke-opacity:1" d="M 93,430 C 103,339 15,325 -8,296 C -23,278 -24,288 -19,309 C -9,355 35,409 62,426 C 83,439 92,444 93,430 z" class="fil2 str2" id="path2730"/>
   <path style="fill:#ffffff;stroke:#000000;stroke-width:8.01200199;stroke-miterlimit:4;stroke-dasharray:none;stroke-opacity:1" d="M 66,410 C -25,351 -89,384 -115,381 C -140,378 -148,394 -105,418 C -52,447 22,443 51,432 C 81,420 72,414 66,410 z" class="fil2 str2" id="path2732"/>
   <path style="fill:#ffffff;stroke:#000000;stroke-width:8.01200199;stroke-miterlimit:4;stroke-dasharray:none;stroke-opacity:1" d="M 203,450 C 175,352 110,368 91,356 C 72,344 70,347 74,369 C 82,408 149,451 182,464 C 194,468 209,474 203,450 z" class="fil2 str2" id="path2734"/>
   <path style="fill:#ffffff;stroke:#000000;stroke-width:8.01200199;stroke-miterlimit:4;stroke-dasharray:none;stroke-opacity:1" d="M 190,467 C 112,404 51,451 27,444 C 9,439 17,451 24,456 C 74,491 136,510 184,488 C 203,480 204,478 190,467 z" class="fil2 str2" id="path2736"/>
   <path style="fill:#ffffff;stroke:#000000;stroke-width:8.01200199;stroke-miterlimit:4;stroke-dasharray:none;stroke-opacity:1" d="M 359,531 C 360,469 232,443 205,405 C 189,382 175,394 183,431 C 195,479 283,532 331,542 C 360,548 359,538 359,531 z" class="fil2 str2" id="path2738"/>
   <path style="fill:#ffffff;stroke:#000000;stroke-width:8.01200199;stroke-miterlimit:4;stroke-dasharray:none;stroke-opacity:1" d="M 355,542 C 274,469 206,493 181,486 C 156,480 146,495 185,525 C 233,561 307,568 338,561 C 369,554 361,547 355,542 z" class="fil2 str2" id="path2740"/>
   <path style="fill:#ffffff;stroke:#000000;stroke-width:8.01200199;stroke-miterlimit:4;stroke-dasharray:none;stroke-opacity:1" d="M 500,649 C 477,543 404,521 386,501 C 369,481 351,487 366,535 C 384,592 443,642 474,654 C 504,667 502,657 500,649 z" class="fil2 str2" id="path2742"/>
   <path style="fill:#ffffff;stroke:#000000;stroke-width:8.01200199;stroke-miterlimit:4;stroke-dasharray:none;stroke-opacity:1" d="M 499,663 C 440,568 363,571 339,558 C 316,544 300,556 331,597 C 367,647 441,675 475,677 C 509,679 503,670 499,663 z" class="fil2 str2" id="path2744"/>
   <path style="fill:#ffffff;stroke:#000000;stroke-width:8.01200199;stroke-miterlimit:4;stroke-dasharray:none;stroke-opacity:1" d="M 575,776 C 609,668 531,628 523,610 C 514,592 505,592 500,611 C 478,688 549,763 560,778 C 571,792 573,785 575,776 z" class="fil2 str2" id="path2746"/>
   <path style="fill:#ffffff;stroke:#000000;stroke-width:8.01200199;stroke-miterlimit:4;stroke-dasharray:none;stroke-opacity:1" d="M 559,806 C 532,685 461,692 445,675 C 428,658 426,670 429,692 C 437,751 508,791 540,811 C 550,817 562,824 559,806 z" class="fil2 str2" id="path2748"/>
   <path style="fill:#ffffff;stroke:#000000;stroke-width:8.01200199;stroke-miterlimit:4;stroke-dasharray:none;stroke-opacity:1" d="M 627,948 C 676,834 618,757 600,740 C 582,724 571,717 577,740 C 585,775 557,865 600,931 C 614,953 616,974 627,948 z" class="fil2 str2" id="path2750"/>
   <path style="fill:#ffffff;stroke:#000000;stroke-width:8.01200199;stroke-miterlimit:4;stroke-dasharray:none;stroke-opacity:1" d="M 601,971 C 612,901 572,837 529,812 C 504,797 503,801 503,822 C 505,887 566,941 584,971 C 601,999 600,978 601,971 z" class="fil2 str2" id="path2752"/>
   <path style="fill:#ffffff;stroke:#000000;stroke-width:8.01200199;stroke-miterlimit:4;stroke-dasharray:none;stroke-opacity:1" d="M 590,1153 C 554,1021 629,945 652,930 C 674,914 688,908 678,933 C 663,970 679,1073 622,1138 C 604,1160 597,1183 590,1153 z" class="fil2 str2" id="path2754"/>
   <path style="fill:#ffffff;stroke:#000000;stroke-width:8.01200199;stroke-miterlimit:4;stroke-dasharray:none;stroke-opacity:1" d="M 598,1124 C 628,1009 563,944 543,931 C 524,918 512,913 521,934 C 533,966 520,1056 570,1112 C 586,1131 592,1150 598,1124 z" class="fil2 str2" id="path2756"/>
   <path style="fill:#ffffff;stroke:#000000;stroke-width:8.01200199;stroke-miterlimit:4;stroke-dasharray:none;stroke-opacity:1" d="M 561,1070 C 507,1128 506,1213 530,1263 C 545,1292 547,1290 561,1269 C 599,1208 576,1120 578,1081 C 579,1044 567,1064 561,1070 z" class="fil2 str2" id="path2758"/>
   <path style="fill:#ffffff;stroke:#000000;stroke-width:8.01200199;stroke-miterlimit:4;stroke-dasharray:none;stroke-opacity:1" d="M 650,1162 C 650,1242 601,1307 549,1327 C 519,1338 519,1335 523,1311 C 537,1221 606,1188 631,1159 C 655,1131 650,1154 650,1162 z" class="fil2 str2" id="path2760"/>
   <path style="fill:#ffffff;stroke:#000000;stroke-width:8.01200199;stroke-miterlimit:4;stroke-dasharray:none;stroke-opacity:1" d="M 464,1400 C 552,1320 505,1264 509,1212 C 511,1184 500,1191 490,1201 C 434,1256 431,1354 443,1392 C 448,1409 456,1407 464,1400 z" class="fil2 str2" id="path2762"/>
   <path style="fill:#ffffff;stroke:#000000;stroke-width:8.01200199;stroke-miterlimit:4;stroke-dasharray:none;stroke-opacity:1" d="M 582,1348 C 553,1436 476,1490 411,1493 C 373,1495 374,1492 387,1466 C 436,1372 523,1361 562,1337 C 598,1315 585,1339 582,1348 z" class="fil2 str2" id="path2764"/>
   <path style="fill:#ffffff;stroke:#000000;stroke-width:8.01200199;stroke-miterlimit:4;stroke-dasharray:none;stroke-opacity:1" d="M 343,1513 C 457,1456 434,1361 455,1337 C 470,1320 452,1322 443,1328 C 376,1367 322,1429 321,1495 C 321,1520 323,1523 343,1513 z" class="fil2 str2" id="path2766"/>
   <path style="fill:#ffffff;stroke:#000000;stroke-width:8.01200199;stroke-miterlimit:4;stroke-dasharray:none;stroke-opacity:1" d="M 187,1619 C 331,1642 398,1533 440,1523 C 462,1518 446,1509 435,1508 C 339,1497 217,1542 180,1592 C 165,1612 165,1616 187,1619 z" class="fil2 str2" id="path2768"/>
   <path style="fill:#ffffff;stroke:#000000;stroke-width:8.01200199;stroke-miterlimit:4;stroke-dasharray:none;stroke-opacity:1" d="M 333,1448 C 304,1543 196,1621 115,1627 C 77,1630 77,1626 91,1601 C 156,1483 269,1463 309,1433 C 343,1407 336,1439 333,1448 z" class="fil2 str2" id="path2770"/>
   <path style="fill:#ffffff;stroke:#000000;stroke-width:8.01200199;stroke-miterlimit:4;stroke-dasharray:none;stroke-opacity:1" d="M 29,384 C 42,310 151,305 168,293 C 188,280 185,293 178,313 C 158,365 90,386 59,392 C 34,396 26,398 29,384 z" class="fil2 str2" id="path2772"/>
   <path style="fill:#ffffff;stroke:#000000;stroke-width:8.01200199;stroke-miterlimit:4;stroke-dasharray:none;stroke-opacity:1" d="M -4,386 C -15,310 93,274 106,257 C 121,239 123,250 116,271 C 103,316 56,369 28,383 C 5,395 -2,400 -4,386 z" class="fil2 str2" id="path2774"/>
   <path style="fill:#ffffff;stroke:#000000;stroke-width:8.01200199;stroke-miterlimit:4;stroke-dasharray:none;stroke-opacity:1" d="M -93,430 C -103,339 -15,325 8,296 C 23,278 24,288 19,309 C 9,355 -35,409 -62,426 C -83,439 -92,444 -93,430 z" class="fil2 str2" id="path2776"/>
   <path style="fill:#ffffff;stroke:#000000;stroke-width:8.01200199;stroke-miterlimit:4;stroke-dasharray:none;stroke-opacity:1" d="M -66,410 C 25,351 89,384 115,381 C 140,378 148,394 105,418 C 52,447 -22,443 -51,432 C -81,420 -72,414 -66,410 z" class="fil2 str2" id="path2778"/>
   <path style="fill:#ffffff;stroke:#000000;stroke-width:8.01200199;stroke-miterlimit:4;stroke-dasharray:none;stroke-opacity:1" d="M -203,450 C -175,352 -110,368 -91,356 C -72,344 -70,347 -74,369 C -82,408 -149,451 -182,464 C -194,468 -209,474 -203,450 z" class="fil2 str2" id="path2780"/>
   <path style="fill:#ffffff;stroke:#000000;stroke-width:8.01200199;stroke-miterlimit:4;stroke-dasharray:none;stroke-opacity:1" d="M -190,467 C -112,404 -51,451 -27,444 C -9,439 -17,451 -24,456 C -74,491 -136,510 -184,488 C -203,480 -204,478 -190,467 z" class="fil2 str2" id="path2782"/>
   <path style="fill:#ffffff;stroke:#000000;stroke-width:8.01200199;stroke-miterlimit:4;stroke-dasharray:none;stroke-opacity:1" d="M -359,531 C -360,469 -232,443 -205,405 C -189,382 -175,394 -183,431 C -195,479 -283,532 -331,542 C -360,548 -359,538 -359,531 z" class="fil2 str2" id="path2784"/>
   <path style="fill:#ffffff;stroke:#000000;stroke-width:8.01200199;stroke-miterlimit:4;stroke-dasharray:none;stroke-opacity:1" d="M -355,542 C -274,469 -206,493 -181,486 C -156,480 -146,495 -185,525 C -233,561 -307,568 -338,561 C -369,554 -361,547 -355,542 z" class="fil2 str2" id="path2786"/>
   <path style="fill:#ffffff;stroke:#000000;stroke-width:8.01200199;stroke-miterlimit:4;stroke-dasharray:none;stroke-opacity:1" d="M -500,649 C -477,543 -404,521 -386,501 C -369,481 -351,487 -366,535 C -384,592 -443,642 -474,654 C -504,667 -502,657 -500,649 z" class="fil2 str2" id="path2788"/>
   <path style="fill:#ffffff;stroke:#000000;stroke-width:8.01200199;stroke-miterlimit:4;stroke-dasharray:none;stroke-opacity:1" d="M -499,663 C -440,568 -363,571 -339,558 C -316,544 -300,556 -331,597 C -367,647 -441,675 -475,677 C -509,679 -503,670 -499,663 z" class="fil2 str2" id="path2790"/>
   <path style="fill:#ffffff;stroke:#000000;stroke-width:8.01200199;stroke-miterlimit:4;stroke-dasharray:none;stroke-opacity:1" d="M -575,776 C -609,668 -531,628 -523,610 C -514,592 -505,592 -500,611 C -478,688 -549,763 -560,778 C -571,792 -573,785 -575,776 z" class="fil2 str2" id="path2792"/>
   <path style="fill:#ffffff;stroke:#000000;stroke-width:8.01200199;stroke-miterlimit:4;stroke-dasharray:none;stroke-opacity:1" d="M -559,806 C -532,685 -461,692 -445,675 C -428,658 -426,670 -429,692 C -437,751 -508,791 -540,811 C -550,817 -562,824 -559,806 z" class="fil2 str2" id="path2794"/>
   <path style="fill:#ffffff;stroke:#000000;stroke-width:8.01200199;stroke-miterlimit:4;stroke-dasharray:none;stroke-opacity:1" d="M -627,948 C -676,834 -618,757 -600,740 C -582,724 -571,717 -577,740 C -585,775 -557,865 -600,931 C -614,953 -616,974 -627,948 z" class="fil2 str2" id="path2796"/>
   <path style="fill:#ffffff;stroke:#000000;stroke-width:8.01200199;stroke-miterlimit:4;stroke-dasharray:none;stroke-opacity:1" d="M -601,971 C -612,901 -572,837 -529,812 C -504,797 -503,801 -503,822 C -505,887 -566,941 -584,971 C -601,999 -600,978 -601,971 z" class="fil2 str2" id="path2798"/>
   <path style="fill:#ffffff;stroke:#000000;stroke-width:8.01200199;stroke-miterlimit:4;stroke-dasharray:none;stroke-opacity:1" d="M -590,1153 C -554,1021 -629,945 -652,930 C -674,914 -688,908 -678,933 C -663,970 -679,1073 -622,1138 C -604,1160 -598,1183 -590,1153 z" class="fil2 str2" id="path2800"/>
   <path style="fill:#ffffff;stroke:#000000;stroke-width:8.01200199;stroke-miterlimit:4;stroke-dasharray:none;stroke-opacity:1" d="M -598,1124 C -628,1009 -563,944 -543,931 C -524,918 -512,913 -521,934 C -533,966 -520,1056 -570,1112 C -586,1131 -592,1150 -598,1124 z" class="fil2 str2" id="path2802"/>
   <path style="fill:#ffffff;stroke:#000000;stroke-width:8.01200199;stroke-miterlimit:4;stroke-dasharray:none;stroke-opacity:1" d="M -561,1070 C -507,1128 -506,1213 -530,1263 C -545,1292 -547,1290 -561,1269 C -599,1208 -576,1120 -578,1081 C -579,1044 -567,1064 -561,1070 z" class="fil2 str2" id="path2804"/>
   <path style="fill:#ffffff;stroke:#000000;stroke-width:8.01200199;stroke-miterlimit:4;stroke-dasharray:none;stroke-opacity:1" d="M -650,1162 C -650,1242 -601,1307 -549,1327 C -519,1338 -519,1335 -523,1311 C -537,1221 -606,1188 -631,1159 C -655,1131 -650,1154 -650,1162 z" class="fil2 str2" id="path2806"/>
   <path style="fill:#ffffff;stroke:#000000;stroke-width:8.01200199;stroke-miterlimit:4;stroke-dasharray:none;stroke-opacity:1" d="M -464,1400 C -552,1320 -505,1264 -509,1212 C -511,1184 -500,1191 -490,1201 C -434,1256 -431,1354 -443,1392 C -448,1409 -456,1407 -464,1400 z" class="fil2 str2" id="path2808"/>
   <path style="fill:#ffffff;stroke:#000000;stroke-width:8.01200199;stroke-miterlimit:4;stroke-dasharray:none;stroke-opacity:1" d="M -582,1348 C -553,1436 -476,1490 -411,1493 C -373,1495 -374,1492 -387,1466 C -436,1372 -523,1361 -562,1337 C -598,1315 -585,1339 -582,1348 z" class="fil2 str2" id="path2810"/>
   <path style="fill:#ffffff;stroke:#000000;stroke-width:8.01200199;stroke-miterlimit:4;stroke-dasharray:none;stroke-opacity:1" d="M -343,1513 C -457,1456 -434,1361 -455,1337 C -470,1320 -452,1322 -443,1328 C -376,1367 -322,1429 -321,1495 C -321,1520 -323,1523 -343,1513 z" class="fil2 str2" id="path2812"/>
   <path style="fill:#ffffff;stroke:#000000;stroke-width:8.01200199;stroke-miterlimit:4;stroke-dasharray:none;stroke-opacity:1" d="M -187,1619 C -331,1642 -398,1533 -440,1523 C -462,1518 -446,1509 -435,1508 C -339,1497 -217,1542 -180,1592 C -165,1612 -165,1616 -187,1619 z" class="fil2 str2" id="path2814"/>
   <path style="fill:#ffffff;stroke:#000000;stroke-width:8.01200199;stroke-miterlimit:4;stroke-dasharray:none;stroke-opacity:1" d="M -333,1448 C -304,1543 -196,1621 -115,1627 C -77,1630 -77,1626 -91,1601 C -156,1483 -269,1463 -309,1433 C -343,1407 -336,1439 -333,1448 z" class="fil2 str2" id="path2816"/>
  </g><g id="g2818" transform="matrix(1.1355465,0,0,1.0324334,2.7256397,-21.429492)">
   <path style="fill:#006233;fill-opacity:1" d="M 169,476 C 150,462 80,470 67,461 C 92,482 148,467 169,476 z" class="fil0" id="path2820"/>
   <path style="fill:#006233;fill-opacity:1" d="M 338,512 C 323,485 234,467 221,443 C 244,489 313,483 338,512 z" class="fil0" id="path2822"/>
   <path style="fill:#006233;fill-opacity:1" d="M 325,543 C 292,511 215,524 192,505 C 246,554 276,516 325,543 z" class="fil0" id="path2824"/>
   <path style="fill:#006233;fill-opacity:1" d="M 132,401 C 153,412 179,423 192,449 C 177,429 150,421 128,404 C 129,404 131,402 132,401 z" class="fil0" id="path2826"/>
   <path style="fill:#006233;fill-opacity:1" d="M 460,607 C 447,577 401,544 397,533 C 410,572 448,581 460,607 z" class="fil0" id="path2828"/>
   <path style="fill:#006233;fill-opacity:1" d="M 472,660 C 432,597 369,604 344,580 C 363,603 435,618 472,660 z" class="fil0" id="path2830"/>
   <path style="fill:#006233;fill-opacity:1" d="M 565,757 C 568,690 518,665 516,627 C 515,672 567,733 565,757 z" class="fil0" id="path2832"/>
   <path style="fill:#006233;fill-opacity:1" d="M 540,793 C 530,735 462,731 450,697 C 450,729 530,762 540,793 z" class="fil0" id="path2834"/>
   <path style="fill:#006233;fill-opacity:1" d="M 596,760 C 632,804 607,871 622,920 C 604,884 613,794 596,760 z" class="fil0" id="path2836"/>
   <path style="fill:#006233;fill-opacity:1" d="M 537,948 C 591,1006 569,1071 591,1099 C 564,1060 568,984 537,948 z" class="fil0" id="path2838"/>
   <path style="fill:#006233;fill-opacity:1" d="M 649,956 C 603,1007 631,1084 607,1120 C 634,1089 630,994 649,956 z" class="fil0" id="path2840"/>
   <path style="fill:#006233;fill-opacity:1" d="M 591,956 C 585,897 530,866 525,834 C 519,866 578,916 591,956 z" class="fil0" id="path2842"/>
   <path style="fill:#006233;fill-opacity:1" d="M 563,1097 C 572,1138 539,1226 549,1253 C 527,1206 568,1117 563,1097 z" class="fil0" id="path2844"/>
   <path style="fill:#006233;fill-opacity:1" d="M 634,1191 C 612,1264 568,1259 554,1303 C 564,1261 622,1223 634,1191 z" class="fil0" id="path2846"/>
   <path style="fill:#006233;fill-opacity:1" d="M 491,1225 C 462,1274 486,1330 462,1365 C 496,1330 478,1265 491,1225 z" class="fil0" id="path2848"/>
   <path style="fill:#006233;fill-opacity:1" d="M 561,1359 C 526,1424 454,1418 425,1465 C 454,1406 543,1396 561,1359 z" class="fil0" id="path2850"/>
   <path style="fill:#006233;fill-opacity:1" d="M 434,1351 C 372,1394 391,1439 344,1487 C 403,1439 398,1386 434,1351 z" class="fil0" id="path2852"/>
   <path style="fill:#006233;fill-opacity:1" d="M 405,1525 C 345,1523 259,1601 207,1595 C 259,1606 355,1536 405,1525 z" class="fil0" id="path2854"/>
   <path style="fill:#006233;fill-opacity:1" d="M 308,1455 C 304,1516 148,1555 131,1596 C 150,1542 287,1502 308,1455 z" class="fil0" id="path2856"/>
   <path style="fill:#006233;fill-opacity:1" d="M -45,330 C -65,313 -89,299 -96,282 C -91,304 -71,320 -51,335 C -49,334 -47,331 -45,330 z" class="fil0" id="path2858"/>
   <path style="fill:#006233;fill-opacity:1" d="M -79,348 C -110,333 -146,334 -162,313 C -152,334 -118,342 -89,353 C -86,351 -82,349 -79,348 z" class="fil0" id="path2860"/>
   <path style="fill:#006233;fill-opacity:1" d="M -169,476 C -150,462 -80,470 -67,461 C -92,482 -148,467 -169,476 z" class="fil0" id="path2862"/>
   <path style="fill:#006233;fill-opacity:1" d="M -338,512 C -323,485 -234,467 -221,443 C -244,489 -313,483 -338,512 z" class="fil0" id="path2864"/>
   <path style="fill:#006233;fill-opacity:1" d="M -325,543 C -292,511 -215,524 -192,505 C -246,554 -276,516 -325,543 z" class="fil0" id="path2866"/>
   <path style="fill:#006233;fill-opacity:1" d="M -192,449 C -173,409 -119,404 -105,380 C -126,416 -172,422 -192,449 z" class="fil0" id="path2868"/>
   <path style="fill:#006233;fill-opacity:1" d="M -38,414 C 17,388 71,410 97,398 C 65,415 -11,407 -38,414 z" class="fil0" id="path2870"/>
   <path style="fill:#006233;fill-opacity:1" d="M -460,607 C -447,577 -401,544 -397,533 C -410,572 -448,581 -460,607 z" class="fil0" id="path2872"/>
   <path style="fill:#006233;fill-opacity:1" d="M -472,660 C -432,597 -369,604 -344,580 C -363,603 -435,618 -472,660 z" class="fil0" id="path2874"/>
   <path style="fill:#006233;fill-opacity:1" d="M -565,757 C -568,690 -518,665 -516,627 C -515,672 -567,733 -565,757 z" class="fil0" id="path2876"/>
   <path style="fill:#006233;fill-opacity:1" d="M -540,793 C -530,735 -462,731 -450,697 C -450,729 -530,762 -540,793 z" class="fil0" id="path2878"/>
   <path style="fill:#006233;fill-opacity:1" d="M -596,760 C -632,804 -607,871 -622,920 C -604,884 -613,794 -596,760 z" class="fil0" id="path2880"/>
   <path style="fill:#006233;fill-opacity:1" d="M -537,948 C -591,1006 -569,1071 -591,1099 C -564,1060 -568,984 -537,948 z" class="fil0" id="path2882"/>
   <path style="fill:#006233;fill-opacity:1" d="M -649,956 C -603,1007 -631,1084 -607,1120 C -634,1089 -630,994 -649,956 z" class="fil0" id="path2884"/>
   <path style="fill:#006233;fill-opacity:1" d="M -591,956 C -585,897 -530,866 -525,834 C -519,866 -578,916 -591,956 z" class="fil0" id="path2886"/>
   <path style="fill:#006233;fill-opacity:1" d="M -563,1097 C -572,1138 -539,1226 -549,1253 C -527,1206 -568,1117 -563,1097 z" class="fil0" id="path2888"/>
   <path style="fill:#006233;fill-opacity:1" d="M -634,1191 C -612,1264 -568,1259 -554,1303 C -564,1261 -622,1223 -634,1191 z" class="fil0" id="path2890"/>
   <path style="fill:#006233;fill-opacity:1" d="M -491,1225 C -462,1274 -486,1330 -462,1365 C -496,1330 -478,1265 -491,1225 z" class="fil0" id="path2892"/>
   <path style="fill:#006233;fill-opacity:1" d="M -561,1359 C -526,1424 -454,1418 -425,1465 C -454,1406 -543,1396 -561,1359 z" class="fil0" id="path2894"/>
   <path style="fill:#006233;fill-opacity:1" d="M -434,1351 C -372,1394 -391,1439 -344,1487 C -403,1439 -398,1386 -434,1351 z" class="fil0" id="path2896"/>
   <path style="fill:#006233;fill-opacity:1" d="M -405,1525 C -345,1523 -259,1601 -207,1595 C -259,1606 -355,1536 -405,1525 z" class="fil0" id="path2898"/>
   <path style="fill:#006233;fill-opacity:1" d="M -308,1455 C -304,1516 -148,1555 -131,1596 C -150,1542 -287,1502 -308,1455 z" class="fil0" id="path2900"/>
   <path style="fill:#006233;fill-opacity:1" d="M -81,416 C -69,362 -9,352 -1,320 C -4,354 -75,392 -81,416 z" class="fil0" id="path2902"/>
   <path style="fill:#006233;fill-opacity:1" d="M 96,282 C 87,323 22,346 13,377 C 16,335 83,311 96,282 z" class="fil0" id="path2904"/>
   <path style="fill:#006233;fill-opacity:1" d="M 45,379 C 76,329 140,342 162,313 C 146,347 67,348 45,379 z" class="fil0" id="path2906"/>
  </g><path sodipodi:type="arc" style="opacity:1;fill:none;fill-opacity:1;fill-rule:evenodd;stroke:#f7c608;stroke-width:8.12081051;stroke-linecap:round;stroke-linejoin:round;marker:none;marker-start:none;marker-mid:none;marker-end:none;stroke-miterlimit:4;stroke-dasharray:none;stroke-dashoffset:0;stroke-opacity:1;visibility:visible;display:inline;overflow:visible;enable-background:accumulate" id="path12826" sodipodi:cx="-0.95692855" sodipodi:cy="1011.9216" sodipodi:rx="476.5976" sodipodi:ry="476.5976" d="m 475.64067,1011.9216 c 0,263.2176 -213.38001,476.5976 -476.59759855,476.5976 -263.21758145,0 -476.59759145,-213.38 -476.59759145,-476.5976 0,-263.21761 213.38001,-476.59763 476.59759145,-476.59763 263.21758855,0 476.59759855,213.38002 476.59759855,476.59763 z" transform="matrix(1.1203317,0,0,1.0186001,1.5553517,-22.824419)"/><g id="g12874" inkscape:transform-center-y="121.75692" transform="matrix(1.0890259,0.2906623,-0.3196918,0.9901369,322.07882,9.1715352)" inkscape:transform-center-x="1.6323098e-05"><path id="path12861" style="fill:#f7c608;fill-opacity:1" d="M 44.746701,1486.136 L 44.746701,1492.139 C 44.746701,1496.141 41.745204,1499.1425 37.743208,1500.143 C 27.738218,1500.143 14.731731,1501.1435 2.7257431,1501.1435 L 2.7257431,1463.1245 C 15.73223,1463.1245 28.738717,1462.124 37.743208,1461.1235 C 41.745204,1461.1235 44.746701,1464.125 44.746701,1468.127 L 44.746701,1473.1295 M -39.295215,1474.13 L -39.295215,1468.127 C -39.295215,1464.125 -36.293718,1461.1235 -32.291722,1461.1235 C -22.286732,1462.124 -10.280744,1463.1245 2.7257431,1463.1245 L 2.7257431,1501.1435 C -9.2802449,1501.1435 -21.286233,1501.1435 -32.291722,1500.143 C -36.293718,1499.1425 -39.295215,1492.139 -39.295215,1488.137"/><path d="M 37.553559,1484.8897 L 37.553559,1489.1917 C 37.553559,1492.0596 35.057208,1494.2106 31.728737,1494.9277 C 23.407564,1494.9277 12.590039,1495.6445 2.6046332,1495.6445 L 2.6046332,1468.3992 C 13.422156,1468.3992 24.239681,1467.6824 31.728737,1466.9654 C 35.057208,1466.9654 37.553559,1469.1163 37.553559,1471.9841 L 37.553559,1475.5691 M -32.344293,1476.2861 L -32.344293,1471.9841 C -32.344293,1469.1163 -29.847942,1466.9654 -26.519471,1466.9654 C -18.1983,1467.6824 -8.2128919,1468.3992 2.6046332,1468.3992 L 2.6046332,1495.6445 C -7.3807748,1495.6445 -17.366182,1495.6445 -26.519471,1494.9277 C -29.847942,1494.2106 -32.344293,1489.1917 -32.344293,1486.3238" style="fill:#006233;fill-opacity:1" id="path12865"/></g><g inkscape:transform-center-y="116.66488" id="g12878" transform="matrix(0.9548841,0.557787,-0.6134956,0.8681758,618.665,131.40779)" inkscape:transform-center-x="37.502089"><path d="M 44.746701,1486.136 L 44.746701,1492.139 C 44.746701,1496.141 41.745204,1499.1425 37.743208,1500.143 C 27.738218,1500.143 14.731731,1501.1435 2.7257431,1501.1435 L 2.7257431,1463.1245 C 15.73223,1463.1245 28.738717,1462.124 37.743208,1461.1235 C 41.745204,1461.1235 44.746701,1464.125 44.746701,1468.127 L 44.746701,1473.1295 M -39.295215,1474.13 L -39.295215,1468.127 C -39.295215,1464.125 -36.293718,1461.1235 -32.291722,1461.1235 C -22.286732,1462.124 -10.280744,1463.1245 2.7257431,1463.1245 L 2.7257431,1501.1435 C -9.2802449,1501.1435 -21.286233,1501.1435 -32.291722,1500.143 C -36.293718,1499.1425 -39.295215,1492.139 -39.295215,1488.137" style="fill:#f7c608;fill-opacity:1" id="path12880"/><path id="path12882" style="fill:#006233;fill-opacity:1" d="M 37.553559,1484.8897 L 37.553559,1489.1917 C 37.553559,1492.0596 35.057208,1494.2106 31.728737,1494.9277 C 23.407564,1494.9277 12.590039,1495.6445 2.6046332,1495.6445 L 2.6046332,1468.3992 C 13.422156,1468.3992 24.239681,1467.6824 31.728737,1466.9654 C 35.057208,1466.9654 37.553559,1469.1163 37.553559,1471.9841 L 37.553559,1475.5691 M -32.344293,1476.2861 L -32.344293,1471.9841 C -32.344293,1469.1163 -29.847942,1466.9654 -26.519471,1466.9654 C -18.1983,1467.6824 -8.2128919,1468.3992 2.6046332,1468.3992 L 2.6046332,1495.6445 C -7.3807748,1495.6445 -17.366182,1495.6445 -26.519471,1494.9277 C -29.847942,1494.2106 -32.344293,1489.1917 -32.344293,1486.3238"/></g><g id="g12884" inkscape:transform-center-y="102.25252" transform="matrix(0.7434173,0.7797433,-0.8576194,0.6759113,865.37345,324.64888)" inkscape:transform-center-x="72.077479"><path id="path12886" style="fill:#f7c608;fill-opacity:1" d="M 44.746701,1486.136 L 44.746701,1492.139 C 44.746701,1496.141 41.745204,1499.1425 37.743208,1500.143 C 27.738218,1500.143 14.731731,1501.1435 2.7257431,1501.1435 L 2.7257431,1463.1245 C 15.73223,1463.1245 28.738717,1462.124 37.743208,1461.1235 C 41.745204,1461.1235 44.746701,1464.125 44.746701,1468.127 L 44.746701,1473.1295 M -39.295215,1474.13 L -39.295215,1468.127 C -39.295215,1464.125 -36.293718,1461.1235 -32.291722,1461.1235 C -22.286732,1462.124 -10.280744,1463.1245 2.7257431,1463.1245 L 2.7257431,1501.1435 C -9.2802449,1501.1435 -21.286233,1501.1435 -32.291722,1500.143 C -36.293718,1499.1425 -39.295215,1492.139 -39.295215,1488.137"/><path d="M 37.553559,1484.8897 L 37.553559,1489.1917 C 37.553559,1492.0596 35.057208,1494.2106 31.728737,1494.9277 C 23.407564,1494.9277 12.590039,1495.6445 2.6046332,1495.6445 L 2.6046332,1468.3992 C 13.422156,1468.3992 24.239681,1467.6824 31.728737,1466.9654 C 35.057208,1466.9654 37.553559,1469.1163 37.553559,1471.9841 L 37.553559,1475.5691 M -32.344293,1476.2861 L -32.344293,1471.9841 C -32.344293,1469.1163 -29.847942,1466.9654 -26.519471,1466.9654 C -18.1983,1467.6824 -8.2128919,1468.3992 2.6046332,1468.3992 L 2.6046332,1495.6445 C -7.3807748,1495.6445 -17.366182,1495.6445 -26.519471,1494.9277 C -29.847942,1494.2106 -32.344293,1489.1917 -32.344293,1486.3238" style="fill:#006233;fill-opacity:1" id="path12888"/></g><g inkscape:transform-center-y="79.591312" id="g12890" transform="matrix(0.4717498,0.9385572,-1.0322947,0.4289127,1042.2261,573.24647)" inkscape:transform-center-x="100.9085"><path d="M 44.746701,1486.136 L 44.746701,1492.139 C 44.746701,1496.141 41.745204,1499.1425 37.743208,1500.143 C 27.738218,1500.143 14.731731,1501.1435 2.7257431,1501.1435 L 2.7257431,1463.1245 C 15.73223,1463.1245 28.738717,1462.124 37.743208,1461.1235 C 41.745204,1461.1235 44.746701,1464.125 44.746701,1468.127 L 44.746701,1473.1295 M -39.295215,1474.13 L -39.295215,1468.127 C -39.295215,1464.125 -36.293718,1461.1235 -32.291722,1461.1235 C -22.286732,1462.124 -10.280744,1463.1245 2.7257431,1463.1245 L 2.7257431,1501.1435 C -9.2802449,1501.1435 -21.286233,1501.1435 -32.291722,1500.143 C -36.293718,1499.1425 -39.295215,1492.139 -39.295215,1488.137" style="fill:#f7c608;fill-opacity:1" id="path12892"/><path id="path12894" style="fill:#006233;fill-opacity:1" d="M 37.553559,1484.8897 L 37.553559,1489.1917 C 37.553559,1492.0596 35.057208,1494.2106 31.728737,1494.9277 C 23.407564,1494.9277 12.590039,1495.6445 2.6046332,1495.6445 L 2.6046332,1468.3992 C 13.422156,1468.3992 24.239681,1467.6824 31.728737,1466.9654 C 35.057208,1466.9654 37.553559,1469.1163 37.553559,1471.9841 L 37.553559,1475.5691 M -32.344293,1476.2861 L -32.344293,1471.9841 C -32.344293,1469.1163 -29.847942,1466.9654 -26.519471,1466.9654 C -18.1983,1467.6824 -8.2128919,1468.3992 2.6046332,1468.3992 L 2.6046332,1495.6445 C -7.3807748,1495.6445 -17.366182,1495.6445 -26.519471,1494.9277 C -29.847942,1494.2106 -32.344293,1489.1917 -32.344293,1486.3238"/></g><g id="g12896" inkscape:transform-center-y="50.501866" transform="matrix(0.161881,1.0213683,-1.1233765,0.1471814,1134.9019,857.06958)" inkscape:transform-center-x="121.5869"><path id="path12898" style="fill:#f7c608;fill-opacity:1" d="M 44.746701,1486.136 L 44.746701,1492.139 C 44.746701,1496.141 41.745204,1499.1425 37.743208,1500.143 C 27.738218,1500.143 14.731731,1501.1435 2.7257431,1501.1435 L 2.7257431,1463.1245 C 15.73223,1463.1245 28.738717,1462.124 37.743208,1461.1235 C 41.745204,1461.1235 44.746701,1464.125 44.746701,1468.127 L 44.746701,1473.1295 M -39.295215,1474.13 L -39.295215,1468.127 C -39.295215,1464.125 -36.293718,1461.1235 -32.291722,1461.1235 C -22.286732,1462.124 -10.280744,1463.1245 2.7257431,1463.1245 L 2.7257431,1501.1435 C -9.2802449,1501.1435 -21.286233,1501.1435 -32.291722,1500.143 C -36.293718,1499.1425 -39.295215,1492.139 -39.295215,1488.137"/><path d="M 37.553559,1484.8897 L 37.553559,1489.1917 C 37.553559,1492.0596 35.057208,1494.2106 31.728737,1494.9277 C 23.407564,1494.9277 12.590039,1495.6445 2.6046332,1495.6445 L 2.6046332,1468.3992 C 13.422156,1468.3992 24.239681,1467.6824 31.728737,1466.9654 C 35.057208,1466.9654 37.553559,1469.1163 37.553559,1471.9841 L 37.553559,1475.5691 M -32.344293,1476.2861 L -32.344293,1471.9841 C -32.344293,1469.1163 -29.847942,1466.9654 -26.519471,1466.9654 C -18.1983,1467.6824 -8.2128919,1468.3992 2.6046332,1468.3992 L 2.6046332,1495.6445 C -7.3807748,1495.6445 -17.366182,1495.6445 -26.519471,1494.9277 C -29.847942,1494.2106 -32.344293,1489.1917 -32.344293,1486.3238" style="fill:#006233;fill-opacity:1" id="path12900"/></g><g inkscape:transform-center-y="17.329332" id="g12902" transform="matrix(-0.1610968,1.0214708,-1.1234892,-0.1464684,1135.896,1153.1346)" inkscape:transform-center-x="132.39662"><path d="M 44.746701,1486.136 L 44.746701,1492.139 C 44.746701,1496.141 41.745204,1499.1425 37.743208,1500.143 C 27.738218,1500.143 14.731731,1501.1435 2.7257431,1501.1435 L 2.7257431,1463.1245 C 15.73223,1463.1245 28.738717,1462.124 37.743208,1461.1235 C 41.745204,1461.1235 44.746701,1464.125 44.746701,1468.127 L 44.746701,1473.1295 M -39.295215,1474.13 L -39.295215,1468.127 C -39.295215,1464.125 -36.293718,1461.1235 -32.291722,1461.1235 C -22.286732,1462.124 -10.280744,1463.1245 2.7257431,1463.1245 L 2.7257431,1501.1435 C -9.2802449,1501.1435 -21.286233,1501.1435 -32.291722,1500.143 C -36.293718,1499.1425 -39.295215,1492.139 -39.295215,1488.137" style="fill:#f7c608;fill-opacity:1" id="path12904"/><path id="path12906" style="fill:#006233;fill-opacity:1" d="M 37.553559,1484.8897 L 37.553559,1489.1917 C 37.553559,1492.0596 35.057208,1494.2106 31.728737,1494.9277 C 23.407564,1494.9277 12.590039,1495.6445 2.6046332,1495.6445 L 2.6046332,1468.3992 C 13.422156,1468.3992 24.239681,1467.6824 31.728737,1466.9654 C 35.057208,1466.9654 37.553559,1469.1163 37.553559,1471.9841 L 37.553559,1475.5691 M -32.344293,1476.2861 L -32.344293,1471.9841 C -32.344293,1469.1163 -29.847942,1466.9654 -26.519471,1466.9654 C -18.1983,1467.6824 -8.2128919,1468.3992 2.6046332,1468.3992 L 2.6046332,1495.6445 C -7.3807748,1495.6445 -17.366182,1495.6445 -26.519471,1494.9277 C -29.847942,1494.2106 -32.344293,1489.1917 -32.344293,1486.3238"/></g><g id="g12908" inkscape:transform-center-y="-17.17449" transform="matrix(-0.4710293,0.9388564,-1.0326237,-0.4282576,1045.1277,1437.4669)" inkscape:transform-center-x="132.41003"><path id="path12910" style="fill:#f7c608;fill-opacity:1" d="M 44.746701,1486.136 L 44.746701,1492.139 C 44.746701,1496.141 41.745204,1499.1425 37.743208,1500.143 C 27.738218,1500.143 14.731731,1501.1435 2.7257431,1501.1435 L 2.7257431,1463.1245 C 15.73223,1463.1245 28.738717,1462.124 37.743208,1461.1235 C 41.745204,1461.1235 44.746701,1464.125 44.746701,1468.127 L 44.746701,1473.1295 M -39.295215,1474.13 L -39.295215,1468.127 C -39.295215,1464.125 -36.293718,1461.1235 -32.291722,1461.1235 C -22.286732,1462.124 -10.280744,1463.1245 2.7257431,1463.1245 L 2.7257431,1501.1435 C -9.2802449,1501.1435 -21.286233,1501.1435 -32.291722,1500.143 C -36.293718,1499.1425 -39.295215,1492.139 -39.295215,1488.137"/><path d="M 37.553559,1484.8897 L 37.553559,1489.1917 C 37.553559,1492.0596 35.057208,1494.2106 31.728737,1494.9277 C 23.407564,1494.9277 12.590039,1495.6445 2.6046332,1495.6445 L 2.6046332,1468.3992 C 13.422156,1468.3992 24.239681,1467.6824 31.728737,1466.9654 C 35.057208,1466.9654 37.553559,1469.1163 37.553559,1471.9841 L 37.553559,1475.5691 M -32.344293,1476.2861 L -32.344293,1471.9841 C -32.344293,1469.1163 -29.847942,1466.9654 -26.519471,1466.9654 C -18.1983,1467.6824 -8.2128919,1468.3992 2.6046332,1468.3992 L 2.6046332,1495.6445 C -7.3807748,1495.6445 -17.366182,1495.6445 -26.519471,1494.9277 C -29.847942,1494.2106 -32.344293,1489.1917 -32.344293,1486.3238" style="fill:#006233;fill-opacity:1" id="path12912"/></g><g inkscape:transform-center-y="-50.272814" id="g12914" transform="matrix(-0.7428186,0.7802148,-0.858138,-0.6753669,869.94765,1687.0414)" inkscape:transform-center-x="121.6422"><path d="M 44.746701,1486.136 L 44.746701,1492.139 C 44.746701,1496.141 41.745204,1499.1425 37.743208,1500.143 C 27.738218,1500.143 14.731731,1501.1435 2.7257431,1501.1435 L 2.7257431,1463.1245 C 15.73223,1463.1245 28.738717,1462.124 37.743208,1461.1235 C 41.745204,1461.1235 44.746701,1464.125 44.746701,1468.127 L 44.746701,1473.1295 M -39.295215,1474.13 L -39.295215,1468.127 C -39.295215,1464.125 -36.293718,1461.1235 -32.291722,1461.1235 C -22.286732,1462.124 -10.280744,1463.1245 2.7257431,1463.1245 L 2.7257431,1501.1435 C -9.2802449,1501.1435 -21.286233,1501.1435 -32.291722,1500.143 C -36.293718,1499.1425 -39.295215,1492.139 -39.295215,1488.137" style="fill:#f7c608;fill-opacity:1" id="path12916"/><path id="path12918" style="fill:#006233;fill-opacity:1" d="M 37.553559,1484.8897 L 37.553559,1489.1917 C 37.553559,1492.0596 35.057208,1494.2106 31.728737,1494.9277 C 23.407564,1494.9277 12.590039,1495.6445 2.6046332,1495.6445 L 2.6046332,1468.3992 C 13.422156,1468.3992 24.239681,1467.6824 31.728737,1466.9654 C 35.057208,1466.9654 37.553559,1469.1163 37.553559,1471.9841 L 37.553559,1475.5691 M -32.344293,1476.2861 L -32.344293,1471.9841 C -32.344293,1469.1163 -29.847942,1466.9654 -26.519471,1466.9654 C -18.1983,1467.6824 -8.2128919,1468.3992 2.6046332,1468.3992 L 2.6046332,1495.6445 C -7.3807748,1495.6445 -17.366182,1495.6445 -26.519471,1494.9277 C -29.847942,1494.2106 -32.344293,1489.1917 -32.344293,1486.3238"/></g><g id="g12920" inkscape:transform-center-y="-79.40949" transform="matrix(-0.9544557,0.5583929,-0.6141618,-0.8677864,624.54141,1881.6484)" inkscape:transform-center-x="101.05776"><path id="path12922" style="fill:#f7c608;fill-opacity:1" d="M 44.746701,1486.136 L 44.746701,1492.139 C 44.746701,1496.141 41.745204,1499.1425 37.743208,1500.143 C 27.738218,1500.143 14.731731,1501.1435 2.7257431,1501.1435 L 2.7257431,1463.1245 C 15.73223,1463.1245 28.738717,1462.124 37.743208,1461.1235 C 41.745204,1461.1235 44.746701,1464.125 44.746701,1468.127 L 44.746701,1473.1295 M -39.295215,1474.13 L -39.295215,1468.127 C -39.295215,1464.125 -36.293718,1461.1235 -32.291722,1461.1235 C -22.286732,1462.124 -10.280744,1463.1245 2.7257431,1463.1245 L 2.7257431,1501.1435 C -9.2802449,1501.1435 -21.286233,1501.1435 -32.291722,1500.143 C -36.293718,1499.1425 -39.295215,1492.139 -39.295215,1488.137"/><path d="M 37.553559,1484.8897 L 37.553559,1489.1917 C 37.553559,1492.0596 35.057208,1494.2106 31.728737,1494.9277 C 23.407564,1494.9277 12.590039,1495.6445 2.6046332,1495.6445 L 2.6046332,1468.3992 C 13.422156,1468.3992 24.239681,1467.6824 31.728737,1466.9654 C 35.057208,1466.9654 37.553559,1469.1163 37.553559,1471.9841 L 37.553559,1475.5691 M -32.344293,1476.2861 L -32.344293,1471.9841 C -32.344293,1469.1163 -29.847942,1466.9654 -26.519471,1466.9654 C -18.1983,1467.6824 -8.2128919,1468.3992 2.6046332,1468.3992 L 2.6046332,1495.6445 C -7.3807748,1495.6445 -17.366182,1495.6445 -26.519471,1494.9277 C -29.847942,1494.2106 -32.344293,1489.1917 -32.344293,1486.3238" style="fill:#006233;fill-opacity:1" id="path12924"/></g><g inkscape:transform-center-y="-102.16314" id="g12926" transform="matrix(-1.0888026,0.2913532,-0.3204518,-0.9899339,328.78156,2005.5286)" inkscape:transform-center-x="72.316124"><path d="M 44.746701,1486.136 L 44.746701,1492.139 C 44.746701,1496.141 41.745204,1499.1425 37.743208,1500.143 C 27.738218,1500.143 14.731731,1501.1435 2.7257431,1501.1435 L 2.7257431,1463.1245 C 15.73223,1463.1245 28.738717,1462.124 37.743208,1461.1235 C 41.745204,1461.1235 44.746701,1464.125 44.746701,1468.127 L 44.746701,1473.1295 M -39.295215,1474.13 L -39.295215,1468.127 C -39.295215,1464.125 -36.293718,1461.1235 -32.291722,1461.1235 C -22.286732,1462.124 -10.280744,1463.1245 2.7257431,1463.1245 L 2.7257431,1501.1435 C -9.2802449,1501.1435 -21.286233,1501.1435 -32.291722,1500.143 C -36.293718,1499.1425 -39.295215,1492.139 -39.295215,1488.137" style="fill:#f7c608;fill-opacity:1" id="path12928"/><path id="path12930" style="fill:#006233;fill-opacity:1" d="M 37.553559,1484.8897 L 37.553559,1489.1917 C 37.553559,1492.0596 35.057208,1494.2106 31.728737,1494.9277 C 23.407564,1494.9277 12.590039,1495.6445 2.6046332,1495.6445 L 2.6046332,1468.3992 C 13.422156,1468.3992 24.239681,1467.6824 31.728737,1466.9654 C 35.057208,1466.9654 37.553559,1469.1163 37.553559,1471.9841 L 37.553559,1475.5691 M -32.344293,1476.2861 L -32.344293,1471.9841 C -32.344293,1469.1163 -29.847942,1466.9654 -26.519471,1466.9654 C -18.1983,1467.6824 -8.2128919,1468.3992 2.6046332,1468.3992 L 2.6046332,1495.6445 C -7.3807748,1495.6445 -17.366182,1495.6445 -26.519471,1494.9277 C -29.847942,1494.2106 -32.344293,1489.1917 -32.344293,1486.3238"/></g><g id="g12932" inkscape:transform-center-y="-116.64006" transform="matrix(-1.1349801,7.2019406e-4,-7.921227e-4,-1.0319182,6.6182727,2048.6506)" inkscape:transform-center-x="37.730583"><path id="path12934" style="fill:#f7c608;fill-opacity:1" d="M 44.746701,1486.136 L 44.746701,1492.139 C 44.746701,1496.141 41.745204,1499.1425 37.743208,1500.143 C 27.738218,1500.143 14.731731,1501.1435 2.7257431,1501.1435 L 2.7257431,1463.1245 C 15.73223,1463.1245 28.738717,1462.124 37.743208,1461.1235 C 41.745204,1461.1235 44.746701,1464.125 44.746701,1468.127 L 44.746701,1473.1295 M -39.295215,1474.13 L -39.295215,1468.127 C -39.295215,1464.125 -36.293718,1461.1235 -32.291722,1461.1235 C -22.286732,1462.124 -10.280744,1463.1245 2.7257431,1463.1245 L 2.7257431,1501.1435 C -9.2802449,1501.1435 -21.286233,1501.1435 -32.291722,1500.143 C -36.293718,1499.1425 -39.295215,1492.139 -39.295215,1488.137"/><path d="M 37.553559,1484.8897 L 37.553559,1489.1917 C 37.553559,1492.0596 35.057208,1494.2106 31.728737,1494.9277 C 23.407564,1494.9277 12.590039,1495.6445 2.6046332,1495.6445 L 2.6046332,1468.3992 C 13.422156,1468.3992 24.239681,1467.6824 31.728737,1466.9654 C 35.057208,1466.9654 37.553559,1469.1163 37.553559,1471.9841 L 37.553559,1475.5691 M -32.344293,1476.2861 L -32.344293,1471.9841 C -32.344293,1469.1163 -29.847942,1466.9654 -26.519471,1466.9654 C -18.1983,1467.6824 -8.2128919,1468.3992 2.6046332,1468.3992 L 2.6046332,1495.6445 C -7.3807748,1495.6445 -17.366182,1495.6445 -26.519471,1494.9277 C -29.847942,1494.2106 -32.344293,1489.1917 -32.344293,1486.3238" style="fill:#006233;fill-opacity:1" id="path12936"/></g><g transform="matrix(-1.0917529,-0.282079,0.3102512,-0.9926164,-313.06129,2009.8848)" inkscape:transform-center-y="-116.94506" id="g12938" inkscape:transform-center-x="-35.649942"><path d="M 44.746701,1486.136 L 44.746701,1492.139 C 44.746701,1496.141 41.745204,1499.1425 37.743208,1500.143 C 27.738218,1500.143 14.731731,1501.1435 2.7257431,1501.1435 L 2.7257431,1463.1245 C 15.73223,1463.1245 28.738717,1462.124 37.743208,1461.1235 C 41.745204,1461.1235 44.746701,1464.125 44.746701,1468.127 L 44.746701,1473.1295 M -39.295215,1474.13 L -39.295215,1468.127 C -39.295215,1464.125 -36.293718,1461.1235 -32.291722,1461.1235 C -22.286732,1462.124 -10.280744,1463.1245 2.7257431,1463.1245 L 2.7257431,1501.1435 C -9.2802449,1501.1435 -21.286233,1501.1435 -32.291722,1500.143 C -36.293718,1499.1425 -39.295215,1492.139 -39.295215,1488.137" style="fill:#f7c608;fill-opacity:1" id="path12940"/><path id="path12942" style="fill:#006233;fill-opacity:1" d="M 37.553559,1484.8897 L 37.553559,1489.1917 C 37.553559,1492.0596 35.057208,1494.2106 31.728737,1494.9277 C 23.407564,1494.9277 12.590039,1495.6445 2.6046332,1495.6445 L 2.6046332,1468.3992 C 13.422156,1468.3992 24.239681,1467.6824 31.728737,1466.9654 C 35.057208,1466.9654 37.553559,1469.1163 37.553559,1471.9841 L 37.553559,1475.5691 M -32.344293,1476.2861 L -32.344293,1471.9841 C -32.344293,1469.1163 -29.847942,1466.9654 -26.519471,1466.9654 C -18.1983,1467.6824 -8.2128919,1468.3992 2.6046332,1468.3992 L 2.6046332,1495.6445 C -7.3807748,1495.6445 -17.366182,1495.6445 -26.519471,1494.9277 C -29.847942,1494.2106 -32.344293,1489.1917 -32.344293,1486.3238"/></g><g inkscape:transform-center-x="-70.356557" transform="matrix(-0.9601596,-0.5502497,0.6052054,-0.8729725,-610.80033,1889.9877)" id="g12944" inkscape:transform-center-y="-102.80443"><path id="path12946" style="fill:#f7c608;fill-opacity:1" d="M 44.746701,1486.136 L 44.746701,1492.139 C 44.746701,1496.141 41.745204,1499.1425 37.743208,1500.143 C 27.738218,1500.143 14.731731,1501.1435 2.7257431,1501.1435 L 2.7257431,1463.1245 C 15.73223,1463.1245 28.738717,1462.124 37.743208,1461.1235 C 41.745204,1461.1235 44.746701,1464.125 44.746701,1468.127 L 44.746701,1473.1295 M -39.295215,1474.13 L -39.295215,1468.127 C -39.295215,1464.125 -36.293718,1461.1235 -32.291722,1461.1235 C -22.286732,1462.124 -10.280744,1463.1245 2.7257431,1463.1245 L 2.7257431,1501.1435 C -9.2802449,1501.1435 -21.286233,1501.1435 -32.291722,1500.143 C -36.293718,1499.1425 -39.295215,1492.139 -39.295215,1488.137"/><path d="M 37.553559,1484.8897 L 37.553559,1489.1917 C 37.553559,1492.0596 35.057208,1494.2106 31.728737,1494.9277 C 23.407564,1494.9277 12.590039,1495.6445 2.6046332,1495.6445 L 2.6046332,1468.3992 C 13.422156,1468.3992 24.239681,1467.6824 31.728737,1466.9654 C 35.057208,1466.9654 37.553559,1469.1163 37.553559,1471.9841 L 37.553559,1475.5691 M -32.344293,1476.2861 L -32.344293,1471.9841 C -32.344293,1469.1163 -29.847942,1466.9654 -26.519471,1466.9654 C -18.1983,1467.6824 -8.2128919,1468.3992 2.6046332,1468.3992 L 2.6046332,1495.6445 C -7.3807748,1495.6445 -17.366182,1495.6445 -26.519471,1494.9277 C -29.847942,1494.2106 -32.344293,1489.1917 -32.344293,1486.3238" style="fill:#006233;fill-opacity:1" id="path12948"/></g><g inkscape:transform-center-x="-99.400159" transform="matrix(-0.7508144,-0.7738621,0.8511509,-0.6826368,-859.33965,1698.6959)" inkscape:transform-center-y="-80.369621" id="g12950"><path d="M 44.746701,1486.136 L 44.746701,1492.139 C 44.746701,1496.141 41.745204,1499.1425 37.743208,1500.143 C 27.738218,1500.143 14.731731,1501.1435 2.7257431,1501.1435 L 2.7257431,1463.1245 C 15.73223,1463.1245 28.738717,1462.124 37.743208,1461.1235 C 41.745204,1461.1235 44.746701,1464.125 44.746701,1468.127 L 44.746701,1473.1295 M -39.295215,1474.13 L -39.295215,1468.127 C -39.295215,1464.125 -36.293718,1461.1235 -32.291722,1461.1235 C -22.286732,1462.124 -10.280744,1463.1245 2.7257431,1463.1245 L 2.7257431,1501.1435 C -9.2802449,1501.1435 -21.286233,1501.1435 -32.291722,1500.143 C -36.293718,1499.1425 -39.295215,1492.139 -39.295215,1488.137" style="fill:#f7c608;fill-opacity:1" id="path12952"/><path id="path12954" style="fill:#006233;fill-opacity:1" d="M 37.553559,1484.8897 L 37.553559,1489.1917 C 37.553559,1492.0596 35.057208,1494.2106 31.728737,1494.9277 C 23.407564,1494.9277 12.590039,1495.6445 2.6046332,1495.6445 L 2.6046332,1468.3992 C 13.422156,1468.3992 24.239681,1467.6824 31.728737,1466.9654 C 35.057208,1466.9654 37.553559,1469.1163 37.553559,1471.9841 L 37.553559,1475.5691 M -32.344293,1476.2861 L -32.344293,1471.9841 C -32.344293,1469.1163 -29.847942,1466.9654 -26.519471,1466.9654 C -18.1983,1467.6824 -8.2128919,1468.3992 2.6046332,1468.3992 L 2.6046332,1495.6445 C -7.3807748,1495.6445 -17.366182,1495.6445 -26.519471,1494.9277 C -29.847942,1494.2106 -32.344293,1489.1917 -32.344293,1486.3238"/></g><g inkscape:transform-center-x="-120.35483" transform="matrix(-0.4806696,-0.9348085,1.0281716,-0.4370224,-1038.553,1451.4998)" id="g12956" inkscape:transform-center-y="-51.442825"><path id="path12958" style="fill:#f7c608;fill-opacity:1" d="M 44.746701,1486.136 L 44.746701,1492.139 C 44.746701,1496.141 41.745204,1499.1425 37.743208,1500.143 C 27.738218,1500.143 14.731731,1501.1435 2.7257431,1501.1435 L 2.7257431,1463.1245 C 15.73223,1463.1245 28.738717,1462.124 37.743208,1461.1235 C 41.745204,1461.1235 44.746701,1464.125 44.746701,1468.127 L 44.746701,1473.1295 M -39.295215,1474.13 L -39.295215,1468.127 C -39.295215,1464.125 -36.293718,1461.1235 -32.291722,1461.1235 C -22.286732,1462.124 -10.280744,1463.1245 2.7257431,1463.1245 L 2.7257431,1501.1435 C -9.2802449,1501.1435 -21.286233,1501.1435 -32.291722,1500.143 C -36.293718,1499.1425 -39.295215,1492.139 -39.295215,1488.137"/><path d="M 37.553559,1484.8897 L 37.553559,1489.1917 C 37.553559,1492.0596 35.057208,1494.2106 31.728737,1494.9277 C 23.407564,1494.9277 12.590039,1495.6445 2.6046332,1495.6445 L 2.6046332,1468.3992 C 13.422156,1468.3992 24.239681,1467.6824 31.728737,1466.9654 C 35.057208,1466.9654 37.553559,1469.1163 37.553559,1471.9841 L 37.553559,1475.5691 M -32.344293,1476.2861 L -32.344293,1471.9841 C -32.344293,1469.1163 -29.847942,1466.9654 -26.519471,1466.9654 C -18.1983,1467.6824 -8.2128919,1468.3992 2.6046332,1468.3992 L 2.6046332,1495.6445 C -7.3807748,1495.6445 -17.366182,1495.6445 -26.519471,1494.9277 C -29.847942,1494.2106 -32.344293,1489.1917 -32.344293,1486.3238" style="fill:#006233;fill-opacity:1" id="path12960"/></g><g inkscape:transform-center-x="-131.48171" transform="matrix(-0.1716007,-1.0200559,1.1219329,-0.1560186,-1133.9281,1168.4169)" inkscape:transform-center-y="-18.355825" id="g12962"><path d="M 44.746701,1486.136 L 44.746701,1492.139 C 44.746701,1496.141 41.745204,1499.1425 37.743208,1500.143 C 27.738218,1500.143 14.731731,1501.1435 2.7257431,1501.1435 L 2.7257431,1463.1245 C 15.73223,1463.1245 28.738717,1462.124 37.743208,1461.1235 C 41.745204,1461.1235 44.746701,1464.125 44.746701,1468.127 L 44.746701,1473.1295 M -39.295215,1474.13 L -39.295215,1468.127 C -39.295215,1464.125 -36.293718,1461.1235 -32.291722,1461.1235 C -22.286732,1462.124 -10.280744,1463.1245 2.7257431,1463.1245 L 2.7257431,1501.1435 C -9.2802449,1501.1435 -21.286233,1501.1435 -32.291722,1500.143 C -36.293718,1499.1425 -39.295215,1492.139 -39.295215,1488.137" style="fill:#f7c608;fill-opacity:1" id="path12964"/><path id="path12966" style="fill:#006233;fill-opacity:1" d="M 37.553559,1484.8897 L 37.553559,1489.1917 C 37.553559,1492.0596 35.057208,1494.2106 31.728737,1494.9277 C 23.407564,1494.9277 12.590039,1495.6445 2.6046332,1495.6445 L 2.6046332,1468.3992 C 13.422156,1468.3992 24.239681,1467.6824 31.728737,1466.9654 C 35.057208,1466.9654 37.553559,1469.1163 37.553559,1471.9841 L 37.553559,1475.5691 M -32.344293,1476.2861 L -32.344293,1471.9841 C -32.344293,1469.1163 -29.847942,1466.9654 -26.519471,1466.9654 C -18.1983,1467.6824 -8.2128919,1468.3992 2.6046332,1468.3992 L 2.6046332,1495.6445 C -7.3807748,1495.6445 -17.366182,1495.6445 -26.519471,1494.9277 C -29.847942,1494.2106 -32.344293,1489.1917 -32.344293,1486.3238"/></g><g inkscape:transform-center-x="-131.82745" transform="matrix(0.1513639,-1.0227006,1.124842,0.1376193,-1137.7412,872.37071)" id="g12968" inkscape:transform-center-y="16.150578"><path id="path12970" style="fill:#f7c608;fill-opacity:1" d="M 44.746701,1486.136 L 44.746701,1492.139 C 44.746701,1496.141 41.745204,1499.1425 37.743208,1500.143 C 27.738218,1500.143 14.731731,1501.1435 2.7257431,1501.1435 L 2.7257431,1463.1245 C 15.73223,1463.1245 28.738717,1462.124 37.743208,1461.1235 C 41.745204,1461.1235 44.746701,1464.125 44.746701,1468.127 L 44.746701,1473.1295 M -39.295215,1474.13 L -39.295215,1468.127 C -39.295215,1464.125 -36.293718,1461.1235 -32.291722,1461.1235 C -22.286732,1462.124 -10.280744,1463.1245 2.7257431,1463.1245 L 2.7257431,1501.1435 C -9.2802449,1501.1435 -21.286233,1501.1435 -32.291722,1500.143 C -36.293718,1499.1425 -39.295215,1492.139 -39.295215,1488.137"/><path d="M 37.553559,1484.8897 L 37.553559,1489.1917 C 37.553559,1492.0596 35.057208,1494.2106 31.728737,1494.9277 C 23.407564,1494.9277 12.590039,1495.6445 2.6046332,1495.6445 L 2.6046332,1468.3992 C 13.422156,1468.3992 24.239681,1467.6824 31.728737,1466.9654 C 35.057208,1466.9654 37.553559,1469.1163 37.553559,1471.9841 L 37.553559,1475.5691 M -32.344293,1476.2861 L -32.344293,1471.9841 C -32.344293,1469.1163 -29.847942,1466.9654 -26.519471,1466.9654 C -18.1983,1467.6824 -8.2128919,1468.3992 2.6046332,1468.3992 L 2.6046332,1495.6445 C -7.3807748,1495.6445 -17.366182,1495.6445 -26.519471,1494.9277 C -29.847942,1494.2106 -32.344293,1489.1917 -32.344293,1486.3238" style="fill:#006233;fill-opacity:1" id="path12972"/></g><g inkscape:transform-center-x="-121.37619" transform="matrix(0.4620713,-0.942529,1.036663,0.4201129,-1049.684,587.33467)" inkscape:transform-center-y="49.328315" id="g12974"><path d="M 44.746701,1486.136 L 44.746701,1492.139 C 44.746701,1496.141 41.745204,1499.1425 37.743208,1500.143 C 27.738218,1500.143 14.731731,1501.1435 2.7257431,1501.1435 L 2.7257431,1463.1245 C 15.73223,1463.1245 28.738717,1462.124 37.743208,1461.1235 C 41.745204,1461.1235 44.746701,1464.125 44.746701,1468.127 L 44.746701,1473.1295 M -39.295215,1474.13 L -39.295215,1468.127 C -39.295215,1464.125 -36.293718,1461.1235 -32.291722,1461.1235 C -22.286732,1462.124 -10.280744,1463.1245 2.7257431,1463.1245 L 2.7257431,1501.1435 C -9.2802449,1501.1435 -21.286233,1501.1435 -32.291722,1500.143 C -36.293718,1499.1425 -39.295215,1492.139 -39.295215,1488.137" style="fill:#f7c608;fill-opacity:1" id="path12976"/><path id="path12978" style="fill:#006233;fill-opacity:1" d="M 37.553559,1484.8897 L 37.553559,1489.1917 C 37.553559,1492.0596 35.057208,1494.2106 31.728737,1494.9277 C 23.407564,1494.9277 12.590039,1495.6445 2.6046332,1495.6445 L 2.6046332,1468.3992 C 13.422156,1468.3992 24.239681,1467.6824 31.728737,1466.9654 C 35.057208,1466.9654 37.553559,1469.1163 37.553559,1471.9841 L 37.553559,1475.5691 M -32.344293,1476.2861 L -32.344293,1471.9841 C -32.344293,1469.1163 -29.847942,1466.9654 -26.519471,1466.9654 C -18.1983,1467.6824 -8.2128919,1468.3992 2.6046332,1468.3992 L 2.6046332,1495.6445 C -7.3807748,1495.6445 -17.366182,1495.6445 -26.519471,1494.9277 C -29.847942,1494.2106 -32.344293,1489.1917 -32.344293,1486.3238"/></g><g inkscape:transform-center-x="-101.0686" transform="matrix(0.7353611,-0.7860328,0.864537,0.6685866,-876.88699,336.39044)" id="g12980" inkscape:transform-center-y="78.62264"><path id="path12982" style="fill:#f7c608;fill-opacity:1" d="M 44.746701,1486.136 L 44.746701,1492.139 C 44.746701,1496.141 41.745204,1499.1425 37.743208,1500.143 C 27.738218,1500.143 14.731731,1501.1435 2.7257431,1501.1435 L 2.7257431,1463.1245 C 15.73223,1463.1245 28.738717,1462.124 37.743208,1461.1235 C 41.745204,1461.1235 44.746701,1464.125 44.746701,1468.127 L 44.746701,1473.1295 M -39.295215,1474.13 L -39.295215,1468.127 C -39.295215,1464.125 -36.293718,1461.1235 -32.291722,1461.1235 C -22.286732,1462.124 -10.280744,1463.1245 2.7257431,1463.1245 L 2.7257431,1501.1435 C -9.2802449,1501.1435 -21.286233,1501.1435 -32.291722,1500.143 C -36.293718,1499.1425 -39.295215,1492.139 -39.295215,1488.137"/><path d="M 37.553559,1484.8897 L 37.553559,1489.1917 C 37.553559,1492.0596 35.057208,1494.2106 31.728737,1494.9277 C 23.407564,1494.9277 12.590039,1495.6445 2.6046332,1495.6445 L 2.6046332,1468.3992 C 13.422156,1468.3992 24.239681,1467.6824 31.728737,1466.9654 C 35.057208,1466.9654 37.553559,1469.1163 37.553559,1471.9841 L 37.553559,1475.5691 M -32.344293,1476.2861 L -32.344293,1471.9841 C -32.344293,1469.1163 -29.847942,1466.9654 -26.519471,1466.9654 C -18.1983,1467.6824 -8.2128919,1468.3992 2.6046332,1468.3992 L 2.6046332,1495.6445 C -7.3807748,1495.6445 -17.366182,1495.6445 -26.519471,1494.9277 C -29.847942,1494.2106 -32.344293,1489.1917 -32.344293,1486.3238" style="fill:#006233;fill-opacity:1" id="path12984"/></g><g inkscape:transform-center-x="-72.543235" transform="matrix(0.9491026,-0.5658849,0.6224023,0.8629194,-633.34307,139.8591)" inkscape:transform-center-y="101.60095" id="g12986"><path d="M 44.746701,1486.136 L 44.746701,1492.139 C 44.746701,1496.141 41.745204,1499.1425 37.743208,1500.143 C 27.738218,1500.143 14.731731,1501.1435 2.7257431,1501.1435 L 2.7257431,1463.1245 C 15.73223,1463.1245 28.738717,1462.124 37.743208,1461.1235 C 41.745204,1461.1235 44.746701,1464.125 44.746701,1468.127 L 44.746701,1473.1295 M -39.295215,1474.13 L -39.295215,1468.127 C -39.295215,1464.125 -36.293718,1461.1235 -32.291722,1461.1235 C -22.286732,1462.124 -10.280744,1463.1245 2.7257431,1463.1245 L 2.7257431,1501.1435 C -9.2802449,1501.1435 -21.286233,1501.1435 -32.291722,1500.143 C -36.293718,1499.1425 -39.295215,1492.139 -39.295215,1488.137" style="fill:#f7c608;fill-opacity:1" id="path12988"/><path id="path12990" style="fill:#006233;fill-opacity:1" d="M 37.553559,1484.8897 L 37.553559,1489.1917 C 37.553559,1492.0596 35.057208,1494.2106 31.728737,1494.9277 C 23.407564,1494.9277 12.590039,1495.6445 2.6046332,1495.6445 L 2.6046332,1468.3992 C 13.422156,1468.3992 24.239681,1467.6824 31.728737,1466.9654 C 35.057208,1466.9654 37.553559,1469.1163 37.553559,1471.9841 L 37.553559,1475.5691 M -32.344293,1476.2861 L -32.344293,1471.9841 C -32.344293,1469.1163 -29.847942,1466.9654 -26.519471,1466.9654 C -18.1983,1467.6824 -8.2128919,1468.3992 2.6046332,1468.3992 L 2.6046332,1495.6445 C -7.3807748,1495.6445 -17.366182,1495.6445 -26.519471,1494.9277 C -29.847942,1494.2106 -32.344293,1489.1917 -32.344293,1486.3238"/></g><g inkscape:transform-center-x="-38.095699" transform="matrix(1.0859874,-0.2999129,0.3298663,0.9873744,-338.77397,13.655391)" id="g12992" inkscape:transform-center-y="116.35021"><path id="path12994" style="fill:#f7c608;fill-opacity:1" d="M 44.746701,1486.136 L 44.746701,1492.139 C 44.746701,1496.141 41.745204,1499.1425 37.743208,1500.143 C 27.738218,1500.143 14.731731,1501.1435 2.7257431,1501.1435 L 2.7257431,1463.1245 C 15.73223,1463.1245 28.738717,1462.124 37.743208,1461.1235 C 41.745204,1461.1235 44.746701,1464.125 44.746701,1468.127 L 44.746701,1473.1295 M -39.295215,1474.13 L -39.295215,1468.127 C -39.295215,1464.125 -36.293718,1461.1235 -32.291722,1461.1235 C -22.286732,1462.124 -10.280744,1463.1245 2.7257431,1463.1245 L 2.7257431,1501.1435 C -9.2802449,1501.1435 -21.286233,1501.1435 -32.291722,1500.143 C -36.293718,1499.1425 -39.295215,1492.139 -39.295215,1488.137"/><path d="M 37.553559,1484.8897 L 37.553559,1489.1917 C 37.553559,1492.0596 35.057208,1494.2106 31.728737,1494.9277 C 23.407564,1494.9277 12.590039,1495.6445 2.6046332,1495.6445 L 2.6046332,1468.3992 C 13.422156,1468.3992 24.239681,1467.6824 31.728737,1466.9654 C 35.057208,1466.9654 37.553559,1469.1163 37.553559,1471.9841 L 37.553559,1475.5691 M -32.344293,1476.2861 L -32.344293,1471.9841 C -32.344293,1469.1163 -29.847942,1466.9654 -26.519471,1466.9654 C -18.1983,1467.6824 -8.2128919,1468.3992 2.6046332,1468.3992 L 2.6046332,1495.6445 C -7.3807748,1495.6445 -17.366182,1495.6445 -26.519471,1494.9277 C -29.847942,1494.2106 -32.344293,1489.1917 -32.344293,1486.3238" style="fill:#006233;fill-opacity:1" id="path12996"/></g><g inkscape:transform-center-x="-0.50677273" transform="matrix(1.1349307,-9.6542612e-3,1.0618471e-2,1.0318734,-17.033372,-32.00094)" inkscape:transform-center-y="121.73308" id="g12998"><path d="M 44.746701,1486.136 L 44.746701,1492.139 C 44.746701,1496.141 41.745204,1499.1425 37.743208,1500.143 C 27.738218,1500.143 14.731731,1501.1435 2.7257431,1501.1435 L 2.7257431,1463.1245 C 15.73223,1463.1245 28.738717,1462.124 37.743208,1461.1235 C 41.745204,1461.1235 44.746701,1464.125 44.746701,1468.127 L 44.746701,1473.1295 M -39.295215,1474.13 L -39.295215,1468.127 C -39.295215,1464.125 -36.293718,1461.1235 -32.291722,1461.1235 C -22.286732,1462.124 -10.280744,1463.1245 2.7257431,1463.1245 L 2.7257431,1501.1435 C -9.2802449,1501.1435 -21.286233,1501.1435 -32.291722,1500.143 C -36.293718,1499.1425 -39.295215,1492.139 -39.295215,1488.137" style="fill:#f7c608;fill-opacity:1" id="path13000"/><path id="path13002" style="fill:#006233;fill-opacity:1" d="M 37.553559,1484.8897 L 37.553559,1489.1917 C 37.553559,1492.0596 35.057208,1494.2106 31.728737,1494.9277 C 23.407564,1494.9277 12.590039,1495.6445 2.6046332,1495.6445 L 2.6046332,1468.3992 C 13.422156,1468.3992 24.239681,1467.6824 31.728737,1466.9654 C 35.057208,1466.9654 37.553559,1469.1163 37.553559,1471.9841 L 37.553559,1475.5691 M -32.344293,1476.2861 L -32.344293,1471.9841 C -32.344293,1469.1163 -29.847942,1466.9654 -26.519471,1466.9654 C -18.1983,1467.6824 -8.2128919,1468.3992 2.6046332,1468.3992 L 2.6046332,1495.6445 C -7.3807748,1495.6445 -17.366182,1495.6445 -26.519471,1494.9277 C -29.847942,1494.2106 -32.344293,1489.1917 -32.344293,1486.3238"/></g></g></g></svg>