<?xml version="1.0" encoding="UTF-8" standalone="no"?>
<!-- Created with Inkscape (http://www.inkscape.org/) -->
<svg
   xmlns:svg="http://www.w3.org/2000/svg"
   xmlns="http://www.w3.org/2000/svg"
   version="1.0"
   width="1200"
   height="600"
   viewBox="0 0 226.801 289.606"
   id="Layer_1"
   xml:space="preserve"><defs
     id="defs3" /><rect
     width="579.21198"
     height="289.60599"
     x="-176.20551"
     y="1.2451172e-005"
     style="opacity:1;fill:#ffffff;fill-opacity:1;fill-rule:evenodd;stroke:none;stroke-width:2.20000005;stroke-linecap:round;stroke-linejoin:round;stroke-miterlimit:4;stroke-dasharray:none;stroke-opacity:1"
     id="rect3212" /><rect
     width="579.21198"
     height="96.535332"
     x="-176.20551"
     y="193.07066"
     style="opacity:1;fill:#ff0000;fill-opacity:1;fill-rule:evenodd;stroke:none;stroke-width:2.20000005;stroke-linecap:round;stroke-linejoin:round;stroke-miterlimit:4;stroke-dasharray:none;stroke-opacity:1"
     id="rect6123" /><rect
     width="579.21198"
     height="96.535332"
     x="-176.20551"
     y="96.535332"
     style="opacity:1;fill:#005ce6;fill-opacity:1;fill-rule:evenodd;stroke:none;stroke-width:2.20000005;stroke-linecap:round;stroke-linejoin:round;stroke-miterlimit:4;stroke-dasharray:none;stroke-opacity:1"
     id="rect4183" /><path
     d="M -66.437756,55.670342 C -67.329756,56.063675 -68.215089,56.472009 -69.093756,56.895008 L -66.325756,100.69434 C -65.571756,112.635 -60.493757,123.93534 -51.983758,132.445 C -46.164425,138.264 -39.040426,142.479 -31.29876,144.803 L -31.298093,144.803 C -23.556427,142.47867 -16.432095,138.264 -10.613095,132.445 C -2.1034294,123.93534 2.9749035,112.635 3.7285701,100.69434 L 6.4969031,56.895008 C 5.6179032,56.472009 4.7332366,56.063675 3.84057,55.670342 L 3.8412367,55.670675 L 1.0079037,100.507 C 0.29890373,111.79267 -4.4990958,122.47367 -12.541428,130.516 C -17.841428,135.81667 -24.288094,139.70733 -31.29776,141.94767 L -31.29876,141.94767 C -38.308759,139.70733 -44.754758,135.81667 -50.054758,130.516 C -58.097424,122.47367 -62.895423,111.79267 -63.60409,100.507 L -66.437756,55.670342 L -66.43709,55.670342"
     style="fill:#ff0000"
     id="path13" /><path
     d="M 3.8412367,55.670675 C -7.1264289,50.835009 -19.080094,48.267676 -31.298426,48.267676 C -43.517092,48.267676 -55.470757,50.835009 -66.438423,55.670675 L -63.604423,100.507 C -62.895757,111.79267 -58.097757,122.47367 -50.055091,130.516 C -44.754758,135.81667 -38.308759,139.70733 -31.299093,141.94767 L -31.298093,141.94767 C -24.288427,139.70733 -17.841761,135.81667 -12.542428,130.516 C -4.4994291,122.47367 0.29857039,111.79267 1.0069037,100.507"
     style="fill:#005ce6;fill-opacity:1"
     id="path15" /><polyline
     style="fill:#ffe600;fill-opacity:1"
     id="polyline17"
     points="119.764,62.917 124.434,56.539 116.574,57.394 113.386,50.161 110.197,57.394 102.338,56.539    107.008,62.917 102.338,69.295 110.197,68.44 113.386,75.673 116.574,68.44 124.434,69.295  "
     transform="matrix(0.3333333,0,0,0.3333333,-69.093756,48.267676)" /><polyline
     style="fill:#ffe600;fill-opacity:1"
     id="polyline19"
     points="90,23.232 94.669,16.854 86.811,17.709 83.622,10.476 80.433,17.709 72.575,16.854 77.244,23.232    72.575,29.61 80.433,28.755 83.622,35.988 86.811,28.755 94.669,29.61  "
     transform="matrix(0.3333333,0,0,0.3333333,-69.093756,48.267676)" /><polyline
     style="fill:#ffe600;fill-opacity:1"
     id="polyline21"
     points="149.527,23.232 154.195,16.854 146.338,17.709 143.148,10.476 139.959,17.709 132.102,16.854    136.771,23.232 132.102,29.61 139.959,28.755 143.148,35.988 146.338,28.755 154.195,29.61  "
     transform="matrix(0.3333333,0,0,0.3333333,-69.093756,48.267676)" /><path
     d="M -2.9517626,107.03567 L -17.125428,88.137672 L -22.794761,95.697005 L -31.29876,78.689006 L -39.802759,95.697005 L -45.472092,88.137672 L -59.645424,107.03567 C -59.645424,109.54167 -58.649757,111.94467 -56.877757,113.71667 C -55.105757,115.488 -52.702758,116.48434 -50.196425,116.48434 C -48.523091,116.48434 -46.895425,116.04034 -45.471425,115.218 C -45.462092,115.212 -45.482758,115.22467 -45.473758,115.21934 C -44.764092,114.80934 -43.998425,114.49 -43.193425,114.27467 C -40.772759,113.62634 -38.193759,113.96534 -36.023426,115.218 C -34.574426,116.05467 -32.94276,116.48434 -31.298093,116.48434 C -31.291093,116.48434 -31.30676,116.48434 -31.29976,116.48434 C -29.65476,116.48434 -28.023427,116.05467 -26.574094,115.218 C -24.404094,113.96534 -21.824761,113.62567 -19.404094,114.27467 C -18.599428,114.49 -17.833761,114.80934 -17.124095,115.21934 C -17.114428,115.22467 -17.135095,115.21234 -17.126095,115.218 C -15.701761,116.04034 -14.074762,116.48434 -12.401428,116.48434 C -9.8947619,116.48434 -7.4917622,115.48834 -5.7197623,113.71667 C -3.9477625,111.94467 -2.9520959,109.54167 -2.9520959,107.03567"
     style="fill:#ffffff"
     id="path23" /><path
     d="M -56.287757,117.296 C -55.637424,118.58834 -54.922424,119.84934 -54.145424,121.074 C -54.145424,121.074 -54.145757,121.07467 -54.145424,121.07534 C -52.150758,121.99267 -49.889091,122.19067 -47.750758,121.61767 C -46.945425,121.40234 -46.180092,121.08267 -45.470425,120.673 C -45.461092,120.66767 -45.481758,120.67967 -45.472425,120.67434 C -44.048425,119.85134 -42.420759,119.408 -40.747426,119.408 C -40.744092,119.408 -40.751759,119.408 -40.748426,119.408 C -39.103759,119.40734 -37.472092,119.837 -36.023093,120.67434 C -33.85276,121.927 -31.27376,122.266 -28.85276,121.61767 C -28.048093,121.40234 -27.282427,121.08267 -26.57276,120.673 C -26.563094,120.66767 -26.58376,120.67967 -26.57476,120.67434 C -25.151094,119.85134 -23.523427,119.408 -21.849427,119.408 C -21.846094,119.408 -21.854094,119.408 -21.850761,119.408 C -20.206094,119.40734 -18.574094,119.837 -17.125428,120.67434 C -14.954761,121.927 -12.376095,122.266 -9.9554286,121.61767 C -9.435762,121.479 -8.9334287,121.296 -8.4514287,121.07467 L -8.4514287,121.07467 C -7.6740955,119.84934 -6.9590955,118.58834 -6.3087623,117.29667 C -6.3087623,117.296 -6.3087623,117.29667 -6.3087623,117.29667 C -6.7807622,117.47634 -7.2384289,117.69367 -7.6770955,117.947 C -7.6860955,117.95234 -7.6654288,117.94034 -7.6744288,117.94567 C -8.3840954,118.35534 -9.149762,118.67434 -9.9550952,118.89034 C -12.375762,119.53867 -14.954428,119.19967 -17.125095,117.94634 C -18.573761,117.10967 -20.205761,116.68067 -21.850427,116.68067 C -21.853761,116.68067 -21.845761,116.68067 -21.849094,116.68067 C -23.522761,116.68067 -25.150427,117.12467 -26.574427,117.947 C -26.583427,117.95234 -26.56276,117.94034 -26.572427,117.94567 C -27.282094,118.35567 -28.04776,118.675 -28.852427,118.89034 C -31.273426,119.53934 -33.852426,119.20034 -36.022759,117.947 C -37.471759,117.11034 -39.103426,116.68067 -40.748092,116.68067 C -40.751759,116.68067 -40.743759,116.68067 -40.747092,116.68067 C -42.420425,116.68067 -44.048092,117.12467 -45.472092,117.94767 C -45.481425,117.953 -45.460758,117.941 -45.470092,117.94634 C -46.179758,118.356 -46.945092,118.675 -47.750425,118.891 C -50.171091,119.53934 -52.750091,119.20034 -54.920424,117.947 C -55.360757,117.693 -55.818091,117.47634 -56.287424,117.298 C -56.287757,117.298 -56.287424,117.29734 -56.287424,117.298"
     style="fill:#ffffff"
     id="path25" /><path
     d="M -10.899095,124.54734 C -12.000095,125.958 -13.192095,127.30833 -14.471428,128.587 C -19.251428,133.367 -25.02076,136.92933 -31.29876,139.07533 L -31.299093,139.07533 C -37.577092,136.92933 -43.346759,133.36767 -48.126758,128.587 C -49.405758,127.30833 -50.597758,125.958 -51.698758,124.54734 C -51.698758,124.54734 -51.699091,124.54734 -51.698758,124.54734 C -50.395758,124.757 -49.050425,124.69334 -47.751091,124.34567 C -46.945758,124.12967 -46.180425,123.81067 -45.470758,123.401 C -45.461425,123.39567 -45.482092,123.40767 -45.472758,123.40234 C -44.048759,122.57934 -42.421092,122.136 -40.747759,122.136 C -40.744426,122.136 -40.752092,122.136 -40.748759,122.136 C -39.104092,122.13534 -37.472426,122.565 -36.023426,123.40167 C -33.853093,124.655 -31.274093,124.994 -28.853427,124.34567 C -28.048093,124.12967 -27.282427,123.81067 -26.57276,123.401 C -26.56376,123.39567 -26.584427,123.40767 -26.57476,123.40234 C -25.151094,122.57934 -23.523427,122.136 -21.850094,122.136 C -21.846761,122.136 -21.854094,122.136 -21.850761,122.136 C -20.206094,122.13534 -18.574761,122.565 -17.125428,123.40167 C -15.235428,124.49334 -13.034428,124.89134 -10.898762,124.547 C -10.898095,124.547 -10.898762,124.547 -10.899428,124.54767"
     style="fill:#ffffff"
     id="path27" /></svg>