<?xml version="1.0" encoding="UTF-8" standalone="no"?>
<!DOCTYPE svg PUBLIC "-//W3C//DTD SVG 1.0//EN" "http://www.w3.org/TR/2001/REC-SVG-20010904/DTD/svg10.dtd">
<!-- Created with Inkscape (http://www.inkscape.org/) -->
<svg xmlns="http://www.w3.org/2000/svg" xmlns:xlink="http://www.w3.org/1999/xlink" version="1.0" x="0.0000000" y="0.0000000" width="450.00000" height="300.00000" id="svg1">
  <defs id="defs3"/>
  <g id="layer1">
    <rect width="450.00000" height="300.00000" x="125.00000" y="377.36218" transform="translate(-125.0000,-377.3622)" style="fill:#ce1126;fill-opacity:1.0000000;stroke:none;stroke-width:25.000000;stroke-linecap:butt;stroke-linejoin:miter;stroke-miterlimit:4.0000000;stroke-opacity:1.0000000" id="rect1061"/>
    <rect width="300.00000" height="150.00000" x="200.00000" y="452.36218" transform="translate(-125.0000,-377.3622)" style="fill:#008751;fill-opacity:1.0000000;stroke:none;stroke-width:25.000000;stroke-linecap:butt;stroke-linejoin:miter;stroke-miterlimit:4.0000000;stroke-opacity:1.0000000" id="rect1683"/>
    <path d="M 158.35236 437.66711 A 118.04449 107.96751 0 1 1  -77.736614,437.66711 A 118.04449 107.96751 0 1 1  158.35236 437.66711 z" transform="matrix(0.423569,0.000000,0.000000,0.463102,226.6768,-52.68450)" style="fill:#ffffff;fill-opacity:1.0000000;stroke:none;stroke-width:25.000000;stroke-linecap:butt;stroke-linejoin:miter;stroke-miterlimit:4.0000000;stroke-opacity:1.0000000" id="path2305"/>
    <path d="M 158.35236 437.66711 A 118.04449 107.96751 0 1 1  -77.736614,437.66711 A 118.04449 107.96751 0 1 1  158.35236 437.66711 z" transform="matrix(0.423569,0.000000,0.000000,0.463102,245.4268,-52.68450)" style="fill:#008751;fill-opacity:1.0000000;stroke:none;stroke-width:25.000000;stroke-linecap:butt;stroke-linejoin:miter;stroke-miterlimit:4.0000000;stroke-opacity:1.0000000" id="path2927"/>
  </g>
</svg>